<svg width="24" height="24" viewBox="0 0 24 24" fill="none" xmlns="http://www.w3.org/2000/svg">
<path d="M15.9532 12.5088C15.9348 10.4874 17.6205 9.50401 17.6976 9.45823C16.7429 8.07658 15.2632 7.88781 14.7432 7.87275C13.5005 7.74293 12.295 8.61093 11.6619 8.61093C11.0162 8.61093 10.0413 7.8853 8.99059 7.90662C7.63851 7.92732 6.37362 8.70438 5.67989 9.91105C4.2482 12.3714 5.31597 15.987 6.68763 17.9758C7.37378 18.9498 8.17555 20.0373 9.22499 19.999C10.2517 19.957 10.6352 19.3493 11.8742 19.3493C13.1018 19.3493 13.4619 19.999 14.5322 19.9746C15.6341 19.957 16.3278 18.9962 16.99 18.0134C17.7829 16.8971 18.1013 15.7976 18.114 15.7412C18.0881 15.7324 15.974 14.9315 15.9532 12.5088Z" fill="#1B1B1F"/>
<path d="M13.9314 6.56448C14.4836 5.87899 14.8614 4.94639 14.7565 4C13.9573 4.03512 12.9577 4.54877 12.3822 5.21921C11.8729 5.81 11.418 6.77835 11.5355 7.68899C12.4333 7.75547 13.3551 7.23932 13.9314 6.56448Z" fill="#1B1B1F"/>
</svg>
