<svg width="28" height="28" viewBox="0 0 28 28" fill="none" xmlns="http://www.w3.org/2000/svg">
<path d="M7.44331 7.48438C7.02143 7.90625 7.0478 8.45996 7.39936 8.76758C7.75971 9.09277 8.26948 9.09277 8.69135 8.68848C10.0009 7.26465 11.8994 6.36816 13.9999 6.36816C17.7177 6.36816 20.7236 9.10156 21.207 12.6084H19.8798C19.2119 12.6084 19.0273 13.1006 19.414 13.6455L21.5058 16.5986C21.8222 17.0381 22.3056 17.0381 22.6308 16.5986L24.7226 13.6543C25.1181 13.1094 24.9335 12.6084 24.2568 12.6084H23.0263C22.5078 8.15234 18.6406 4.5752 13.9999 4.5752C11.416 4.5752 9.06049 5.71777 7.44331 7.48438ZM3.2685 13.6631C2.88178 14.208 3.05756 14.709 3.73432 14.709H4.98237C5.49214 19.165 9.35932 22.7422 13.9999 22.7422C16.5927 22.7422 18.9482 21.5996 20.5742 19.8242C20.9873 19.4023 20.9609 18.8486 20.6093 18.5322C20.249 18.207 19.748 18.2158 19.3173 18.6201C18.0166 20.0527 16.1181 20.9492 13.9999 20.9492C10.291 20.9492 7.27631 18.2246 6.79292 14.709H8.11128C8.77924 14.709 8.96381 14.2168 8.5771 13.6719L6.4853 10.7188C6.16889 10.2793 5.68549 10.2793 5.36909 10.7188L3.2685 13.6631Z" fill="#1B1B1F"/>
</svg>
