<svg width="24" height="24" viewBox="0 0 24 24" fill="none" xmlns="http://www.w3.org/2000/svg">
<path d="M12.5333 4.53333C12.5333 4.2384 12.2944 4 12 4C11.7056 4 11.4667 4.2384 11.4667 4.53333V7.98186C11.4667 8.2768 11.7056 8.5152 12 8.5152C12.2944 8.5152 12.5333 8.2768 12.5333 7.98186V4.53333Z" fill="#1B1B1F"/>
<path opacity="0.5" d="M12 15.4848C11.7056 15.4848 11.4667 15.7232 11.4667 16.0181V19.4667C11.4667 19.7616 11.7056 20 12 20C12.2944 20 12.5333 19.7616 12.5333 19.4667V16.0181C12.5333 15.7232 12.2944 15.4848 12 15.4848Z" fill="#1B1B1F"/>
<path opacity="0.75" d="M19.4666 11.4667H16.0181C15.7237 11.4667 15.4847 11.7051 15.4847 12C15.4847 12.2949 15.7237 12.5333 16.0181 12.5333H19.4666C19.761 12.5333 19.9999 12.2949 19.9999 12C19.9999 11.7051 19.761 11.4667 19.4666 11.4667Z" fill="#1B1B1F"/>
<path opacity="0.25" d="M4.53333 12.5333H7.98186C8.27626 12.5333 8.5152 12.2949 8.5152 12C8.5152 11.7051 8.27626 11.4667 7.98186 11.4667H4.53333C4.23893 11.4667 4 11.7051 4 12C4 12.2949 4.23893 12.5333 4.53333 12.5333Z" fill="#1B1B1F"/>
<path opacity="0.75" d="M17.6565 6.34346C17.448 6.13492 17.1109 6.13492 16.9024 6.34346L14.464 8.78186C14.2555 8.99039 14.2555 9.32746 14.464 9.53599C14.568 9.63999 14.7045 9.69226 14.8411 9.69226C14.9776 9.69226 15.1141 9.63999 15.2181 9.53599L17.6565 7.09759C17.8651 6.88906 17.8651 6.55146 17.6565 6.34346Z" fill="#1B1B1F"/>
<path opacity="0.25" d="M6.34353 17.6565C6.44753 17.7605 6.58407 17.8128 6.7206 17.8128C6.85713 17.8128 6.99367 17.7605 7.09767 17.6565L9.53607 15.2181C9.7446 15.0096 9.7446 14.6725 9.53607 14.464C9.32753 14.2555 8.99047 14.2555 8.78193 14.464L6.34353 16.9024C6.135 17.1109 6.135 17.4485 6.34353 17.6565Z" fill="#1B1B1F"/>
<path opacity="0.5" d="M14.464 14.464C14.2555 14.6725 14.2555 15.0096 14.464 15.2181L16.9024 17.6565C17.0064 17.7605 17.1429 17.8128 17.2795 17.8128C17.416 17.8128 17.5525 17.7605 17.6565 17.6565C17.8651 17.448 17.8651 17.1109 17.6565 16.9024L15.2181 14.464C15.0101 14.2555 14.6726 14.2555 14.464 14.464Z" fill="#1B1B1F"/>
<path opacity="0.25" d="M8.78193 9.53599C8.88593 9.63999 9.02247 9.69226 9.159 9.69226C9.29553 9.69226 9.43207 9.63999 9.53607 9.53599C9.7446 9.32746 9.7446 8.99039 9.53607 8.78186L7.09767 6.34346C6.88913 6.13492 6.55207 6.13492 6.34353 6.34346C6.135 6.55199 6.135 6.88906 6.34353 7.09759L8.78193 9.53599Z" fill="#1B1B1F"/>
</svg>
