<svg width="24" height="24" viewBox="0 0 24 24" fill="none" xmlns="http://www.w3.org/2000/svg">
<path d="M16.3846 21C17.9683 21 19.0452 20.5468 20.0136 19.4864C20.0769 19.4139 20.1403 19.3414 20.2036 19.2598C20.7376 18.6617 21 18.0363 21 17.4653C21 16.7856 20.638 16.1692 19.8326 15.6073L17.1357 13.7312C16.2851 13.1421 15.3077 13.0968 14.5475 13.8581L13.8688 14.5288C13.6425 14.7644 13.4253 14.7826 13.1538 14.6013C12.6652 14.2659 11.7421 13.4502 11.0995 12.8158C10.457 12.1723 9.79638 11.4291 9.44344 10.8763C9.26244 10.6134 9.28054 10.3959 9.51584 10.1603L10.1855 9.48957C10.9457 8.72825 10.9005 7.74035 10.3032 6.89746L8.39367 4.16033C7.85973 3.38089 7.2172 3.00929 6.53846 3.00023C5.95928 2.99116 5.34389 3.254 4.74661 3.77967C4.67421 3.84312 4.60181 3.90656 4.52941 3.97C3.46154 4.95791 3 6.00925 3 7.65878C3 10.3234 4.54751 13.4774 7.55204 16.4683C10.5475 19.4502 13.6697 21 16.3846 21ZM16.3846 19.4955C14.0769 19.5317 11.19 17.8732 8.69231 15.3898C6.18552 12.9064 4.48416 9.91555 4.52036 7.6044C4.53846 6.62556 4.88235 5.78267 5.57014 5.17543C5.63348 5.12105 5.68778 5.07573 5.76018 5.02135C6.01357 4.80383 6.28507 4.68601 6.53846 4.68601C6.80091 4.68601 7.0362 4.79477 7.2172 5.06667L8.91855 7.62252C9.1267 7.93068 9.13575 8.27508 8.82805 8.58324L8.09502 9.3083C7.41629 9.96993 7.47059 10.7584 7.91403 11.3747C8.40272 12.0636 9.31674 13.0968 10.0769 13.849C10.8824 14.6466 12.0045 15.6526 12.6652 16.133C13.2805 16.5771 14.0588 16.6315 14.7285 15.9517L15.4525 15.2176C15.7511 14.9004 16.1041 14.9185 16.4118 15.127L18.9276 16.7946C19.1991 16.9759 19.2986 17.2025 19.2986 17.4744C19.2986 17.7191 19.19 18 18.9638 18.2538C18.9095 18.3173 18.8643 18.3807 18.81 18.4441C18.2127 19.133 17.362 19.4774 16.3846 19.4955Z" fill="#1B1B1F"/>
</svg>
