<svg width="28" height="28" viewBox="0 0 28 28" fill="none" xmlns="http://www.w3.org/2000/svg">
<path d="M14 22.7334C18.9658 22.7334 23.0791 18.6289 23.0791 13.6543C23.0791 8.68848 18.9658 4.5752 13.9912 4.5752C9.02539 4.5752 4.9209 8.68848 4.9209 13.6543C4.9209 18.6289 9.03418 22.7334 14 22.7334ZM14 20.9492C9.95703 20.9492 6.71387 17.6973 6.71387 13.6543C6.71387 9.61133 9.94824 6.36816 13.9912 6.36816C18.0342 6.36816 21.2861 9.61133 21.2949 13.6543C21.2949 17.6973 18.043 20.9492 14 20.9492ZM10.168 17.5918H17.8232C18.7549 17.5918 19.2471 17.1084 19.2471 16.1855V11.624C19.2471 10.6924 18.7549 10.2178 17.8232 10.2178H16.7686C16.4346 10.2178 16.3203 10.1562 16.1094 9.93652L15.7666 9.56738C15.5381 9.33008 15.3096 9.20703 14.8701 9.20703H13.0859C12.6553 9.20703 12.418 9.32129 12.1982 9.56738L11.8467 9.93652C11.6357 10.1475 11.5303 10.2178 11.1963 10.2178H10.168C9.22754 10.2178 8.74414 10.6924 8.74414 11.624V16.1855C8.74414 17.1084 9.22754 17.5918 10.168 17.5918ZM14 16.4316C12.585 16.4316 11.4336 15.2891 11.4336 13.8652C11.4336 12.4414 12.585 11.3076 14 11.3076C15.4238 11.3076 16.5576 12.4414 16.5576 13.8652C16.5576 15.3154 15.4238 16.4316 14 16.4316ZM17.4541 12.6963C17.1289 12.6963 16.8564 12.4326 16.8564 12.0986C16.8564 11.7559 17.1289 11.4922 17.4541 11.4922C17.7881 11.4922 18.0518 11.7559 18.0518 12.0986C18.0605 12.4326 17.7881 12.6963 17.4541 12.6963ZM13.9912 15.5703C14.9404 15.5703 15.7051 14.8145 15.7051 13.8652C15.7051 12.916 14.9404 12.1602 13.9912 12.1602C13.0508 12.1602 12.2861 12.916 12.2861 13.8652C12.2861 14.8145 13.0508 15.5703 13.9912 15.5703Z" fill="#1C1C1E"/>
</svg>
