<svg width="24" height="24" viewBox="0 0 24 24" fill="none" xmlns="http://www.w3.org/2000/svg">
<path d="M17.944 18.3783C18.185 18.6119 18.5542 18.6269 18.7953 18.3783C19.0439 18.1222 19.0288 17.7606 18.7953 17.5271L6.01847 4.75781C5.78493 4.52427 5.39319 4.51674 5.15965 4.75781C4.93365 4.98381 4.93365 5.37555 5.15965 5.60156L17.944 18.3783ZM12.0076 5.18722C10.6892 5.18722 9.49894 5.41322 8.39151 5.78236L9.61194 7.00279C10.3728 6.79185 11.1563 6.66378 12.0076 6.66378C16.7989 6.66378 20.6033 10.8298 20.6033 11.7112C20.6033 12.3064 19.3979 13.8357 17.4769 15.041L18.6069 16.1786C20.9724 14.6267 22.3511 12.6002 22.3511 11.7112C22.3511 10.1668 18.1926 5.18722 12.0076 5.18722ZM12.0076 18.2427C13.3937 18.2427 14.6669 18.0017 15.8195 17.6024L14.5991 16.382C13.7855 16.623 12.9267 16.7662 12.0076 16.7662C7.20122 16.7662 3.39682 12.7659 3.39682 11.7112C3.39682 11.2065 4.66997 9.58677 6.71155 8.32115L5.55893 7.16852C3.10301 8.73549 1.64905 10.8147 1.64905 11.7112C1.64905 13.2556 5.89793 18.2427 12.0076 18.2427ZM15.7517 13.1501C15.9476 12.7132 16.0531 12.216 16.0531 11.7112C16.0531 9.4587 14.2526 7.67327 12.0076 7.67327C11.4878 7.67327 11.0056 7.77873 10.5612 7.95954L15.7517 13.1501ZM12.0076 15.7567C12.5801 15.7567 13.1225 15.6211 13.6122 15.3876L8.31618 10.0915C8.07511 10.5812 7.94704 11.1311 7.94704 11.7187C7.95457 13.911 9.74754 15.7567 12.0076 15.7567Z" fill="#1B1B1F"/>
</svg>
