<svg width="24" height="24" viewBox="0 0 24 24" fill="none" xmlns="http://www.w3.org/2000/svg">
<path d="M12.0076 18.2428C18.1926 18.2428 22.3511 13.2556 22.3511 11.7112C22.3511 10.1669 18.1775 5.18723 12.0076 5.18723C5.913 5.18723 1.64905 10.1669 1.64905 11.7112C1.64905 13.2556 5.89793 18.2428 12.0076 18.2428ZM12.0076 16.7662C7.20122 16.7662 3.39682 12.7659 3.39682 11.7112C3.39682 10.8298 7.20122 6.66379 12.0076 6.66379C16.7913 6.66379 20.6033 10.8298 20.6033 11.7112C20.6033 12.7659 16.7913 16.7662 12.0076 16.7662ZM12.0076 15.7567C14.2526 15.7567 16.0531 13.911 16.0531 11.7112C16.0531 9.45871 14.2526 7.67327 12.0076 7.67327C9.74754 7.67327 7.93951 9.45871 7.94704 11.7112C7.96211 13.911 9.74754 15.7567 12.0076 15.7567ZM12.0001 13.0145C11.2768 13.0145 10.6892 12.4269 10.6892 11.7112C10.6892 10.9955 11.2768 10.4079 12.0001 10.4079C12.7233 10.4079 13.3109 10.9955 13.3109 11.7112C13.3109 12.4269 12.7233 13.0145 12.0001 13.0145Z" fill="#1B1B1F"/>
</svg>
