<svg width="24" height="24" viewBox="0 0 24 24" fill="none" xmlns="http://www.w3.org/2000/svg">
<rect width="24" height="24" fill="white"/>
<path fill-rule="evenodd" clip-rule="evenodd" d="M19.68 12.1818C19.68 11.6145 19.6291 11.0691 19.5345 10.5455H12V13.64H16.3055C16.12 14.64 15.5564 15.4873 14.7091 16.0545V18.0618H17.2945C18.8073 16.6691 19.68 14.6182 19.68 12.1818Z" fill="#4285F4"/>
<path fill-rule="evenodd" clip-rule="evenodd" d="M11.9999 19.9999C14.1599 19.9999 15.9708 19.2835 17.2945 18.0617L14.709 16.0544C13.9926 16.5344 13.0763 16.8181 11.9999 16.8181C9.91629 16.8181 8.15265 15.4108 7.52356 13.5199H4.85083V15.5926C6.16719 18.2072 8.87265 19.9999 11.9999 19.9999Z" fill="#34A853"/>
<path fill-rule="evenodd" clip-rule="evenodd" d="M7.52364 13.52C7.36364 13.04 7.27273 12.5273 7.27273 12C7.27273 11.4728 7.36364 10.96 7.52364 10.48V8.40732H4.85091C4.30909 9.48732 4 10.7091 4 12C4 13.291 4.30909 14.5128 4.85091 15.5928L7.52364 13.52Z" fill="#FBBC05"/>
<path fill-rule="evenodd" clip-rule="evenodd" d="M11.9999 7.18182C13.1745 7.18182 14.229 7.58545 15.0581 8.37818L17.3526 6.08364C15.9672 4.79273 14.1563 4 11.9999 4C8.87265 4 6.16719 5.79273 4.85083 8.40727L7.52356 10.48C8.15265 8.58909 9.91629 7.18182 11.9999 7.18182Z" fill="#EA4335"/>
</svg>
