<svg width="25" height="24" viewBox="0 0 25 24" fill="none" xmlns="http://www.w3.org/2000/svg">
<path d="M5.0142 12C5.0142 16.2564 8.53233 19.7821 12.7963 19.7821C17.0527 19.7821 20.5784 16.2564 20.5784 11.9924C20.5784 7.73603 17.0527 4.2179 12.7963 4.2179C8.53233 4.2179 5.0142 7.74356 5.0142 12ZM6.54349 12C6.54349 8.53458 9.33088 5.75473 12.7963 5.75473C16.2617 5.75473 19.0415 8.52705 19.0415 11.9924C19.0415 15.4579 16.2617 18.2452 12.7963 18.2528C9.33088 18.2528 6.54349 15.4654 6.54349 12ZM9.74522 10.094C9.74522 10.2522 9.77536 10.3728 9.84316 10.5008L12.0806 14.8702C12.2539 15.2017 12.4573 15.3524 12.7887 15.3524C13.1052 15.3524 13.3312 15.1942 13.5044 14.8702L15.8172 10.5008C15.885 10.3652 15.9151 10.2522 15.9151 10.0789C15.9151 9.6872 15.6289 9.40093 15.2447 9.40093C14.9207 9.40093 14.7249 9.5516 14.5516 9.92074L12.8415 13.4163H12.7887L11.1088 9.92074C10.943 9.54407 10.7472 9.40093 10.4232 9.40093C10.0315 9.40093 9.74522 9.69474 9.74522 10.094Z" fill="#4DC821"/>
</svg>
