<svg width="28" height="28" viewBox="0 0 28 28" fill="none" xmlns="http://www.w3.org/2000/svg">
<path d="M5.11426 11.1758C5.11426 14.9375 8.26074 18.6465 13.1738 21.8105C13.4463 21.9775 13.7715 22.1445 13.9912 22.1445C14.2197 22.1445 14.5449 21.9775 14.8086 21.8105C19.7217 18.6465 22.8682 14.9375 22.8682 11.1758C22.8682 7.9502 20.6445 5.7002 17.7617 5.7002C16.0918 5.7002 14.7822 6.47363 13.9912 7.63379C13.2178 6.48242 11.8994 5.7002 10.2207 5.7002C7.34668 5.7002 5.11426 7.9502 5.11426 11.1758ZM6.88965 11.1758C6.88965 8.94336 8.34863 7.44043 10.3174 7.44043C11.9082 7.44043 12.7959 8.40723 13.3496 9.25098C13.5957 9.60254 13.7627 9.7168 13.9912 9.7168C14.2285 9.7168 14.3691 9.59375 14.6328 9.25098C15.2217 8.41602 16.0918 7.44043 17.6738 7.44043C19.6426 7.44043 21.1016 8.94336 21.1016 11.1758C21.1016 14.2871 17.8584 17.7236 14.1582 20.1846C14.0791 20.2373 14.0264 20.2725 13.9912 20.2725C13.9561 20.2725 13.9033 20.2373 13.8242 20.1846C10.124 17.7236 6.88965 14.2871 6.88965 11.1758Z" fill="#1C1C1E"/>
</svg>
