<svg width="24" height="24" viewBox="0 0 24 24" fill="none" xmlns="http://www.w3.org/2000/svg">
<path d="M19.5687 10.9592C19.5683 10.9589 19.5679 10.9584 19.5675 10.958L13.0408 4.43152C12.7626 4.1532 12.3927 4 11.9993 4C11.6059 4 11.236 4.1532 10.9577 4.43152L4.43434 10.9547C4.43215 10.9569 4.42983 10.9592 4.42775 10.9614C3.85646 11.536 3.85744 12.4683 4.43056 13.0414C4.6924 13.3033 5.0381 13.455 5.40785 13.4709C5.42299 13.4724 5.43813 13.4731 5.45339 13.4731H5.7134V18.2761C5.7134 19.2267 6.48683 20 7.43739 20H9.99086C10.2498 20 10.4596 19.79 10.4596 19.5312V15.7656C10.4596 15.3319 10.8125 14.9791 11.2462 14.9791H12.7523C13.1861 14.9791 13.5388 15.3319 13.5388 15.7656V19.5312C13.5388 19.79 13.7487 20 14.0076 20H16.5611C17.5117 20 18.285 19.2267 18.285 18.2761V13.4731H18.5263C18.9196 13.4731 19.2894 13.3199 19.5679 13.0415C20.1416 12.4675 20.1419 11.5336 19.5687 10.9592V10.9592ZM18.9049 12.3787C18.8037 12.4799 18.6692 12.5356 18.5263 12.5356H17.8163C17.5574 12.5356 17.3475 12.7455 17.3475 13.0044V18.2761C17.3475 18.7097 16.9948 19.0625 16.5611 19.0625H14.4763V15.7656C14.4763 14.8151 13.703 14.0416 12.7523 14.0416H11.2462C10.2955 14.0416 9.52211 14.8151 9.52211 15.7656V19.0625H7.43739C7.0038 19.0625 6.6509 18.7097 6.6509 18.2761V13.0044C6.6509 12.7455 6.44106 12.5356 6.18215 12.5356H5.48439C5.47707 12.5352 5.46986 12.5348 5.46242 12.5347C5.32277 12.5322 5.19179 12.4768 5.09364 12.3785C4.8849 12.1698 4.8849 11.8301 5.09364 11.6212C5.09377 11.6212 5.09377 11.6211 5.09389 11.621L5.09425 11.6206L11.6207 5.09436C11.7218 4.99316 11.8562 4.9375 11.9993 4.9375C12.1422 4.9375 12.2766 4.99316 12.3778 5.09436L18.9028 11.6193C18.9038 11.6202 18.9049 11.6212 18.9059 11.6222C19.1135 11.8313 19.1132 12.1703 18.9049 12.3787V12.3787Z" fill="black"/>
</svg>
