<svg width="24" height="24" viewBox="0 0 24 24" fill="none" xmlns="http://www.w3.org/2000/svg">
<path d="M12 2C6.47327 2 2 6.4725 2 12C2 17.5267 6.4725 22 12 22C17.5267 22 22 17.5275 22 12C22 6.47327 17.5275 2 12 2ZM12 20.4375C7.33676 20.4375 3.5625 16.6637 3.5625 12C3.5625 7.33676 7.3363 3.5625 12 3.5625C16.6632 3.5625 20.4375 7.3363 20.4375 12C20.4375 16.6632 16.6637 20.4375 12 20.4375ZM14.3177 16.6094C14.3177 17.0409 13.9679 17.3906 13.5364 17.3906H10.4636C10.0321 17.3906 9.68234 17.0409 9.68234 16.6094C9.68234 16.1779 10.0321 15.8281 10.4636 15.8281H11.2188V11.2448H10.4636C10.0321 11.2448 9.68234 10.8951 9.68234 10.4636C9.68234 10.0321 10.0321 9.68234 10.4636 9.68234H12C12.4315 9.68234 12.7812 10.0321 12.7812 10.4636V15.8281H13.5364C13.9679 15.8281 14.3177 16.1779 14.3177 16.6094ZM11.0234 6.83078C11.0234 6.29138 11.4606 5.85422 12 5.85422C12.5394 5.85422 12.9766 6.29138 12.9766 6.83078C12.9766 7.37003 12.5394 7.80734 12 7.80734C11.4606 7.80734 11.0234 7.37003 11.0234 6.83078Z" fill="#1B1B1F"/>
</svg>
