<svg width="230" height="48" viewBox="0 0 230 48" fill="none" xmlns="http://www.w3.org/2000/svg">
<!-- <path d="M10.8799 35.1854C10.3388 35.1854 9.82698 35.0542 9.34441 34.7918C8.86183 34.544 8.62054 34.2014 8.62054 33.764C8.62054 32.7289 8.7156 31.497 8.9057 30.0683C9.70999 23.9891 10.1121 16.5613 10.1121 7.78497C10.1121 4.75262 9.48333 3.23645 8.22571 3.23645C7.52378 3.23645 6.90228 3.58633 6.36122 4.2861C5.83477 4.9713 5.418 5.86788 5.11091 6.97585C4.81844 8.08383 4.6722 9.27198 4.6722 10.5403C4.6722 11.5317 4.81844 13.0551 5.11091 15.1107C5.25714 16.1458 5.33026 16.78 5.33026 17.0132C5.33026 17.5964 5.18403 18.0629 4.89156 18.4128C4.61371 18.7626 4.06533 18.9376 3.24641 18.9376C2.73459 18.9376 2.23008 18.7991 1.73288 18.5221C1.23568 18.2305 0.818915 17.7932 0.482575 17.21C0.160858 16.6269 0 15.8907 0 15.0014C0 10.7298 0.789668 7.2164 2.369 4.46105C4.05071 1.48702 6.43433 0 9.51989 0C11.5964 0 13.0953 0.984055 14.0166 2.95216C14.7624 4.55581 15.1353 6.57494 15.1353 9.00957C15.1353 22.9321 14.9525 30.8556 14.5869 32.78C14.4407 33.5235 14.1044 34.1066 13.5779 34.5294C13.0515 34.9667 12.1521 35.1854 10.8799 35.1854Z" fill="url(#paint0_linear_80_95)"/>
<path d="M38.5729 34.5513C36.4817 34.5513 34.9828 33.6692 34.0762 31.9052C33.3304 30.462 32.9575 28.5522 32.9575 26.1759C32.9575 24.7617 33.0598 23.2674 33.2646 21.6929C33.44 20.3226 33.5278 19.1563 33.5278 18.1941C33.5278 17.5526 33.4327 17.0059 33.2426 16.554C33.0525 16.0875 32.7601 15.8542 32.3652 15.8542C31.5609 15.8542 30.7713 16.3062 29.9962 17.21C28.3145 19.1636 27.0423 22.2834 26.1795 26.5695C25.9016 27.969 25.7627 29.405 25.7627 30.8774V32.8237C25.7627 33.3777 25.6384 33.8005 25.3898 34.092C25.1412 34.3982 24.6806 34.5513 24.0079 34.5513C23.5107 34.5513 23.0866 34.3982 22.7357 34.092C21.7705 33.2465 21.1417 31.5845 20.8492 29.1061C20.4983 26.1613 20.3228 21.62 20.3228 15.4825C20.3228 13.3103 21.4488 12.2241 23.7008 12.2241C25.3094 12.2241 26.1137 12.8 26.1137 13.9517C26.1137 14.8264 26.0552 15.7959 25.9382 16.8601C25.8358 17.7786 25.7481 18.8647 25.675 20.1185C27.7223 14.8264 30.508 12.1804 34.0323 12.1804C37.1763 12.1804 38.7484 14.0975 38.7484 17.9317C38.7484 18.9522 38.6241 20.4173 38.3755 22.3271C38.1123 24.4264 37.9806 26.1175 37.9806 27.4005C37.9806 28.6105 38.1123 29.5654 38.3755 30.2651C38.6387 30.9649 39.1359 31.3148 39.8671 31.3148C42.0752 31.3148 44.2249 27.2547 46.316 19.1344C46.4476 18.6387 46.762 18.3909 47.2592 18.3909C47.5078 18.3909 47.7418 18.4784 47.9612 18.6533C48.1951 18.8137 48.3121 19.0469 48.3121 19.3531C48.3121 19.4405 48.2975 19.5426 48.2683 19.6592C47.1276 24.1057 45.9066 27.5973 44.6051 30.1339C43.9178 31.4752 43.0915 32.5467 42.1264 33.3485C41.1759 34.1503 39.9914 34.5513 38.5729 34.5513Z" fill="url(#paint1_linear_80_95)"/>
<path d="M51.7229 35.1854C49.6609 35.1854 48.162 34.1941 47.2261 32.2114C46.4803 30.6223 46.1074 28.6105 46.1074 26.1759C46.1074 21.5982 46.144 17.8369 46.2171 14.892C45.1788 14.892 44.5281 14.8483 44.2649 14.7608C43.6361 14.5713 43.3217 14.0975 43.3217 13.3394C43.3217 12.5667 43.6653 12.1804 44.3526 12.1804C44.6451 12.1804 45.2958 12.2169 46.3049 12.2897C46.3926 9.88428 46.5096 8.27335 46.6558 7.45695C46.8021 6.71344 47.1384 6.1303 47.6648 5.70752C48.2059 5.28474 49.1126 5.07335 50.3848 5.07335C50.9259 5.07335 51.4304 5.20456 51.8983 5.46697C52.3809 5.71481 52.6222 6.05011 52.6222 6.47289C52.6222 7.50797 52.5345 8.74715 52.359 10.1904L52.0958 12.421L55.8686 12.3772C56.3951 12.3772 56.6583 12.6396 56.6583 13.1645C56.6583 13.9517 55.5761 14.4401 53.4119 14.6296C52.9147 14.6733 52.3955 14.7098 51.8545 14.739C51.3719 19.4624 51.1306 23.6829 51.1306 27.4005C51.1306 30.4328 51.7594 31.949 53.017 31.949C55.1228 31.949 57.2798 27.6774 59.4879 19.1344C59.6195 18.6387 59.9266 18.3909 60.4092 18.3909C60.6724 18.3909 60.9137 18.4784 61.1331 18.6533C61.367 18.8137 61.484 19.0469 61.484 19.3531C61.484 19.703 60.9795 21.4597 59.9705 24.6232C58.8591 28.0929 57.755 30.6369 56.6583 32.2551C55.3275 34.2087 53.6824 35.1854 51.7229 35.1854Z" fill="url(#paint2_linear_80_95)"/>
<path d="M68.865 34.5513C66.5984 34.5513 64.7193 34.092 63.2277 33.1736C61.7507 32.2551 60.6393 30.9722 59.8935 29.3248C59.1624 27.6629 58.7968 25.7239 58.7968 23.508C58.7968 15.9563 62.1163 12.1804 68.7554 12.1804C70.7149 12.1804 72.3089 12.6834 73.5372 13.6893C74.7656 14.6806 75.3798 15.9927 75.3798 17.6255C75.3798 19.1125 75.0215 20.3736 74.305 21.4087C73.5884 22.4292 72.6525 23.2456 71.4973 23.8579C70.342 24.4556 69.1136 24.7544 67.8121 24.7544C66.2913 24.7544 65.0629 24.5576 64.127 24.164C64.2148 28.8583 65.9696 31.2055 69.3915 31.2055C71.8921 31.2055 74.0198 30.2068 75.7746 28.2096C77.2808 26.4893 78.4069 24.3098 79.1527 21.6711L79.8765 19.1344C80.0227 18.6387 80.3372 18.3909 80.8197 18.3909C81.083 18.3909 81.3242 18.4784 81.5436 18.6533C81.7629 18.8137 81.8726 19.0469 81.8726 19.3531C81.8726 19.5426 81.624 20.5048 81.1268 22.2396C80.1324 25.7385 78.7066 28.5667 76.8495 30.7244C74.6852 33.2756 72.0237 34.5513 68.865 34.5513ZM64.1709 22.2834C66.1451 22.2834 67.7756 21.9918 69.0624 21.4087C70.6125 20.7089 71.3876 19.6009 71.3876 18.0847C71.3876 17.2538 71.1609 16.5321 70.7076 15.9198C70.2543 15.3075 69.5889 15.0014 68.7115 15.0014C67.1175 15.0014 65.955 15.8688 65.2238 17.6036C64.5803 19.1052 64.2294 20.6651 64.1709 22.2834Z" fill="url(#paint3_linear_80_95)"/>
<path d="M87.9594 34.5513C86.6141 34.5513 85.5319 34.2888 84.713 33.764C83.8941 33.2538 83.2945 32.5394 82.9143 31.621C82.5487 30.7025 82.366 29.6456 82.366 28.4501C82.366 26.0009 82.9948 23.333 84.2524 20.4465C84.6618 19.4989 84.8666 18.9376 84.8666 18.7626C84.8666 18.5585 84.6107 18.2888 84.0988 17.9535C83.1776 17.3267 82.6219 16.9622 82.4318 16.8601C82.1539 17.7932 81.8907 18.7262 81.6421 19.6592C81.5105 20.1549 81.1815 20.4027 80.655 20.4027C79.997 20.3882 79.6679 20.1257 79.6679 19.6155C79.6679 19.1781 79.9896 17.8806 80.6331 15.723C79.6825 14.8629 79.2073 13.7549 79.2073 12.3991C79.2073 11.6702 79.4778 11.0579 80.0189 10.5622C80.56 10.0519 81.2473 9.79681 82.0808 9.79681C82.578 9.79681 82.9875 9.95718 83.3092 10.2779C83.6455 10.5986 83.8137 11.0651 83.8137 11.6774C83.8137 12.3189 83.6674 13.0624 83.375 13.908C83.6382 14.0683 84.7203 14.7462 86.6214 15.9417C88.5224 17.1371 89.473 18.1722 89.473 19.0469C89.473 19.8779 89.1659 21.0661 88.5517 22.6114C87.762 24.6087 87.3672 26.6278 87.3672 28.6688C87.3672 29.4706 87.4988 30.1121 87.762 30.5932C88.0252 31.0743 88.5224 31.3148 89.2536 31.3148C90.6867 31.3148 92.0321 29.7841 93.2897 26.7226C94.1232 24.6815 94.9275 22.1522 95.7026 19.1344C95.8342 18.6387 96.1486 18.3909 96.6458 18.3909C96.909 18.3909 97.143 18.4711 97.3477 18.6314C97.5671 18.7918 97.6767 19.0105 97.6767 19.2875C97.6767 19.3312 97.6548 19.4478 97.6109 19.6374C95.783 26.9267 93.765 31.497 91.5568 33.3485C90.5917 34.1503 89.3925 34.5513 87.9594 34.5513Z" fill="url(#paint4_linear_80_95)"/>
<path d="M113.766 34.5513C111.675 34.5513 110.176 33.6692 109.269 31.9052C108.524 30.462 108.151 28.5522 108.151 26.1759C108.151 24.7617 108.253 23.2674 108.458 21.6929C108.633 20.3226 108.721 19.1563 108.721 18.1941C108.721 17.5526 108.626 17.0059 108.436 16.554C108.246 16.0875 107.953 15.8542 107.558 15.8542C106.754 15.8542 105.964 16.3062 105.189 17.21C103.508 19.1636 102.235 22.2834 101.373 26.5695C101.095 27.969 100.956 29.405 100.956 30.8774V32.8237C100.956 33.3777 100.832 33.8005 100.583 34.092C100.334 34.3982 99.8737 34.5513 99.201 34.5513C98.7038 34.5513 98.2798 34.3982 97.9288 34.092C96.9637 33.2465 96.3348 31.5845 96.0424 29.1061C95.6914 26.1613 95.5159 21.62 95.5159 15.4825C95.5159 13.3103 96.6419 12.2241 98.894 12.2241C100.503 12.2241 101.307 12.8 101.307 13.9517C101.307 14.8264 101.248 15.7959 101.131 16.8601C101.029 17.7786 100.941 18.8647 100.868 20.1185C102.915 14.8264 105.701 12.1804 109.225 12.1804C112.369 12.1804 113.942 14.0975 113.942 17.9317C113.942 18.9522 113.817 20.4173 113.569 22.3271C113.305 24.4264 113.174 26.1175 113.174 27.4005C113.174 28.6105 113.305 29.5654 113.569 30.2651C113.832 30.9649 114.329 31.3148 115.06 31.3148C117.268 31.3148 119.418 27.2547 121.509 19.1344C121.641 18.6387 121.955 18.3909 122.452 18.3909C122.701 18.3909 122.935 18.4784 123.154 18.6533C123.388 18.8137 123.505 19.0469 123.505 19.3531C123.505 19.4405 123.491 19.5426 123.461 19.6592C122.321 24.1057 121.1 27.5973 119.798 30.1339C119.111 31.4752 118.285 32.5467 117.32 33.3485C116.369 34.1503 115.185 34.5513 113.766 34.5513Z" fill="url(#paint5_linear_80_95)"/>
<path d="M134.001 48C132.919 48 131.925 47.8323 131.018 47.497C130.111 47.1617 129.38 46.6223 128.824 45.8788C128.283 45.1353 128.013 44.1513 128.013 42.9267C128.013 40.7399 128.993 38.903 130.952 37.4159C132.283 36.41 134.345 35.3239 137.138 34.1576C137.664 33.939 138.169 33.7203 138.651 33.5016C138.739 31.9708 138.783 30.2724 138.783 28.4064V27.7066C138.037 29.0187 137.131 30.0319 136.063 30.7462C134.849 31.5772 133.35 31.9927 131.566 31.9927C126.667 31.9927 124.218 27.6118 124.218 18.8501C124.218 17.5818 124.364 16.1239 124.657 14.4765C124.949 12.8146 125.41 11.1453 126.039 9.46879C126.667 7.77768 127.472 6.21777 128.451 4.78907C129.446 3.36036 130.63 2.20866 132.005 1.33394C133.394 0.444647 135.003 0 136.831 0C139.068 0 140.911 0.626879 142.358 1.88064C144.157 3.44055 145.056 5.97722 145.056 9.49066C145.056 12.3626 143.974 13.7986 141.81 13.7986C140.991 13.7986 140.443 13.6237 140.165 13.2738C139.887 12.9239 139.748 12.4574 139.748 11.8743C139.748 11.087 139.829 10.2487 139.989 9.35945C140.209 8.09112 140.318 7.0779 140.318 6.31982C140.318 5.75125 140.223 5.22642 140.033 4.74533C139.843 4.26424 139.521 3.88519 139.068 3.6082C138.629 3.31663 138.037 3.17084 137.291 3.17084C135.478 3.17084 133.972 4.24237 132.773 6.38542C131.764 8.16401 131.011 10.4018 130.513 13.0989C130.104 15.2856 129.899 17.2027 129.899 18.8501C129.899 20.8036 129.987 22.4948 130.162 23.9235C130.353 25.3376 130.711 26.431 131.237 27.2036C131.764 27.9617 132.561 28.3408 133.628 28.3408C135.12 28.3408 136.37 27.4952 137.379 25.8041C138.242 24.3754 138.754 22.8301 138.915 21.1681C138.973 20.5412 139.046 19.9945 139.134 19.528C139.412 18.0118 140.633 17.2538 142.797 17.2538C143.338 17.2538 143.85 17.3923 144.333 17.6692C144.815 17.9317 145.056 18.2815 145.056 18.7189C145.056 20.6141 144.713 24.4774 144.025 30.3089C144.771 29.7112 145.495 29.0405 146.197 28.297C147.864 26.5476 149.151 24.1203 150.058 21.015L150.606 19.1344C150.752 18.6387 151.067 18.3909 151.549 18.3909C151.812 18.3909 152.054 18.4784 152.273 18.6533C152.492 18.8137 152.602 19.0469 152.602 19.3531C152.602 19.5426 152.354 20.4756 151.856 22.1522C150.877 25.4032 149.458 27.9909 147.601 29.9153C146.343 31.2273 145.027 32.3572 143.653 33.3048L143.258 36.2569C142.79 39.5226 141.956 42.154 140.757 44.1513C139.222 46.7171 136.97 48 134.001 48ZM133.606 44.851C134.513 44.851 135.266 44.523 135.866 43.867C137.196 42.38 138.059 39.7777 138.454 36.0601C136.421 37.0077 134.857 37.8679 133.76 38.6405C131.976 39.8943 131.084 41.2428 131.084 42.6861C131.084 44.1294 131.925 44.851 133.606 44.851Z" fill="url(#paint6_linear_80_95)"/>
<path d="M158.667 34.5513C157.322 34.5513 156.24 34.2888 155.421 33.764C154.602 33.2538 154.002 32.5394 153.622 31.621C153.256 30.7025 153.074 29.6456 153.074 28.4501C153.074 26.0009 153.702 23.333 154.96 20.4465C155.369 19.4989 155.574 18.9376 155.574 18.7626C155.574 18.5585 155.318 18.2888 154.806 17.9535C153.885 17.3267 153.329 16.9622 153.139 16.8601C152.862 17.7932 152.598 18.7262 152.35 19.6592C152.218 20.1549 151.889 20.4027 151.363 20.4027C150.705 20.3882 150.376 20.1257 150.376 19.6155C150.376 19.1781 150.697 17.8806 151.341 15.723C150.39 14.8629 149.915 13.7549 149.915 12.3991C149.915 11.6702 150.185 11.0579 150.726 10.5622C151.268 10.0519 151.955 9.79681 152.788 9.79681C153.286 9.79681 153.695 9.95718 154.017 10.2779C154.353 10.5986 154.521 11.0651 154.521 11.6774C154.521 12.3189 154.375 13.0624 154.083 13.908C154.346 14.0683 155.428 14.7462 157.329 15.9417C159.23 17.1371 160.181 18.1722 160.181 19.0469C160.181 19.8779 159.873 21.0661 159.259 22.6114C158.47 24.6087 158.075 26.6278 158.075 28.6688C158.075 29.4706 158.206 30.1121 158.47 30.5932C158.733 31.0743 159.23 31.3148 159.961 31.3148C161.394 31.3148 162.74 29.7841 163.997 26.7226C164.831 24.6815 165.635 22.1522 166.41 19.1344C166.542 18.6387 166.856 18.3909 167.353 18.3909C167.617 18.3909 167.851 18.4711 168.055 18.6314C168.275 18.7918 168.384 19.0105 168.384 19.2875C168.384 19.3312 168.362 19.4478 168.319 19.6374C166.491 26.9267 164.473 31.497 162.264 33.3485C161.299 34.1503 160.1 34.5513 158.667 34.5513Z" fill="url(#paint7_linear_80_95)"/>
<path d="M184.671 34.5513C181.381 34.5513 179.538 32.3572 179.143 27.969C177.871 32.3572 175.721 34.5513 172.694 34.5513C170.208 34.5513 168.366 33.3194 167.167 30.8556C166.202 28.8437 165.719 26.431 165.719 23.6173C165.719 20.5704 166.224 18.0337 167.233 16.0073C168.49 13.456 170.552 12.1804 173.418 12.1804C175.904 12.1804 177.93 13.3248 179.494 15.6137C179.524 15.2492 179.567 14.9066 179.626 14.5859C179.758 13.8424 180.087 13.2592 180.613 12.8364C181.154 12.3991 182.061 12.1804 183.333 12.1804C183.874 12.1804 184.379 12.3116 184.847 12.574C185.329 12.8219 185.57 13.1645 185.57 13.6018C185.57 14.3745 185.38 15.9198 185 18.2378C184.386 21.9554 184.079 25.0096 184.079 27.4005C184.079 28.6105 184.21 29.5654 184.474 30.2651C184.751 30.9649 185.249 31.3148 185.965 31.3148C188.173 31.3148 190.33 27.2547 192.436 19.1344C192.568 18.6387 192.875 18.3909 193.357 18.3909C193.621 18.3909 193.855 18.4784 194.059 18.6533C194.279 18.8137 194.388 19.0469 194.388 19.3531C194.388 19.5572 194.344 19.8342 194.257 20.1841C194.169 20.5194 194.081 20.8401 193.994 21.1462C192.97 24.8784 191.88 27.8743 190.725 30.1339C190.038 31.4752 189.212 32.5467 188.246 33.3485C187.296 34.1503 186.104 34.5513 184.671 34.5513ZM173.901 30.8774C174.544 30.8774 175.158 30.5203 175.743 29.8059C176.811 28.4938 177.769 26.3727 178.617 23.4424C178.968 22.2032 179.143 21.0879 179.143 20.0966C179.143 19.6738 179.114 19.2364 179.056 18.7845C178.953 18.0556 178.588 17.3995 177.959 16.8164C177.242 16.1749 176.445 15.8542 175.568 15.8542C173.623 15.8542 172.321 16.9549 171.663 19.1563C171.254 20.5558 171.049 22.4729 171.049 24.9075C171.049 26.1467 171.232 27.3494 171.598 28.5157C172.095 30.0902 172.863 30.8774 173.901 30.8774Z" fill="url(#paint8_linear_80_95)"/>
<path d="M220.261 34.5513C218.17 34.5513 216.671 33.6692 215.764 31.9052C215.018 30.462 214.645 28.5522 214.645 26.1759C214.645 24.7617 214.748 23.2674 214.952 21.6929C215.128 20.3226 215.216 19.1563 215.216 18.1941C215.216 17.5526 215.121 17.0059 214.93 16.554C214.74 16.0875 214.448 15.8542 214.053 15.8542C212.532 15.8542 211.223 17.4797 210.127 20.7308C209.074 23.836 208.547 27.2474 208.547 30.9649V32.9768C208.547 34.0264 208.043 34.5513 207.034 34.5513C206.113 34.5513 205.389 33.9754 204.862 32.8237C204.102 31.1617 203.722 29.077 203.722 26.5695C203.722 25.4032 203.802 24.0401 203.963 22.4802C204.094 21.0952 204.16 19.6665 204.16 18.1941C204.16 17.5526 204.065 17.0059 203.875 16.554C203.685 16.0875 203.393 15.8542 202.998 15.8542C201.477 15.8542 200.205 17.487 199.181 20.7526C198.187 23.9016 197.689 27.2547 197.689 30.8118V32.8893C197.689 33.9973 197.097 34.5513 195.913 34.5513C195.43 34.5513 195.013 34.3982 194.662 34.092C193.712 33.261 193.083 31.5991 192.776 29.1061C192.41 26.1613 192.228 21.6784 192.228 15.6574C192.228 14.8264 192.366 14.1412 192.644 13.6018C193.127 12.6688 194.129 12.2023 195.649 12.2023C197.229 12.2169 198.018 12.8 198.018 13.9517C198.018 14.8264 197.96 15.7959 197.843 16.8601C197.77 17.5308 197.711 18.2232 197.667 18.9376C198.209 17.3631 198.845 16.0437 199.576 14.9795C200.863 13.1134 202.559 12.1804 204.665 12.1804C207.575 12.1804 209.147 13.8497 209.381 17.1882C209.761 16.3572 210.171 15.621 210.609 14.9795C211.911 13.1134 213.614 12.1804 215.72 12.1804C218.879 12.1804 220.458 14.0975 220.458 17.9317C220.458 18.9522 220.334 20.4173 220.085 22.3271C219.807 24.4264 219.669 26.1175 219.669 27.4005C219.669 28.6105 219.8 29.5654 220.063 30.2651C220.327 30.9649 220.824 31.3148 221.555 31.3148C223.763 31.3148 225.913 27.2547 228.004 19.1344C228.136 18.6387 228.45 18.3909 228.947 18.3909C229.196 18.3909 229.43 18.4784 229.649 18.6533C229.883 18.8137 230 19.0469 230 19.3531C230 19.4405 229.985 19.5426 229.956 19.6592C228.099 26.9194 226.059 31.4825 223.836 33.3485C222.871 34.1503 221.679 34.5513 220.261 34.5513Z" fill="url(#paint9_linear_80_95)"/> -->
<defs>
<linearGradient id="paint0_linear_80_95" x1="0" y1="27.6552" x2="230" y2="27.6552" gradientUnits="userSpaceOnUse">
<stop stop-color="#FD3D91"/>
<stop offset="0.473958" stop-color="#A23EF0"/>
<stop offset="1" stop-color="#23BEFF"/>
</linearGradient>
<linearGradient id="paint1_linear_80_95" x1="0" y1="27.6552" x2="230" y2="27.6552" gradientUnits="userSpaceOnUse">
<stop stop-color="#FD3D91"/>
<stop offset="0.473958" stop-color="#A23EF0"/>
<stop offset="1" stop-color="#23BEFF"/>
</linearGradient>
<linearGradient id="paint2_linear_80_95" x1="0" y1="27.6552" x2="230" y2="27.6552" gradientUnits="userSpaceOnUse">
<stop stop-color="#FD3D91"/>
<stop offset="0.473958" stop-color="#A23EF0"/>
<stop offset="1" stop-color="#23BEFF"/>
</linearGradient>
<linearGradient id="paint3_linear_80_95" x1="0" y1="27.6552" x2="230" y2="27.6552" gradientUnits="userSpaceOnUse">
<stop stop-color="#FD3D91"/>
<stop offset="0.473958" stop-color="#A23EF0"/>
<stop offset="1" stop-color="#23BEFF"/>
</linearGradient>
<linearGradient id="paint4_linear_80_95" x1="0" y1="27.6552" x2="230" y2="27.6552" gradientUnits="userSpaceOnUse">
<stop stop-color="#FD3D91"/>
<stop offset="0.473958" stop-color="#A23EF0"/>
<stop offset="1" stop-color="#23BEFF"/>
</linearGradient>
<linearGradient id="paint5_linear_80_95" x1="0" y1="27.6552" x2="230" y2="27.6552" gradientUnits="userSpaceOnUse">
<stop stop-color="#FD3D91"/>
<stop offset="0.473958" stop-color="#A23EF0"/>
<stop offset="1" stop-color="#23BEFF"/>
</linearGradient>
<linearGradient id="paint6_linear_80_95" x1="0" y1="27.6552" x2="230" y2="27.6552" gradientUnits="userSpaceOnUse">
<stop stop-color="#FD3D91"/>
<stop offset="0.473958" stop-color="#A23EF0"/>
<stop offset="1" stop-color="#23BEFF"/>
</linearGradient>
<linearGradient id="paint7_linear_80_95" x1="0" y1="27.6552" x2="230" y2="27.6552" gradientUnits="userSpaceOnUse">
<stop stop-color="#FD3D91"/>
<stop offset="0.473958" stop-color="#A23EF0"/>
<stop offset="1" stop-color="#23BEFF"/>
</linearGradient>
<linearGradient id="paint8_linear_80_95" x1="0" y1="27.6552" x2="230" y2="27.6552" gradientUnits="userSpaceOnUse">
<stop stop-color="#FD3D91"/>
<stop offset="0.473958" stop-color="#A23EF0"/>
<stop offset="1" stop-color="#23BEFF"/>
</linearGradient>
<linearGradient id="paint9_linear_80_95" x1="0" y1="27.6552" x2="230" y2="27.6552" gradientUnits="userSpaceOnUse">
<stop stop-color="#FD3D91"/>
<stop offset="0.473958" stop-color="#A23EF0"/>
<stop offset="1" stop-color="#23BEFF"/>
</linearGradient>
</defs>
<path d="M10.8799 35.1854C10.3388 35.1854 9.82698 35.0542 9.34441 34.7918C8.86183 34.544 8.62054 34.2014 8.62054 33.764C8.62054 32.7289 8.7156 31.497 8.9057 30.0683C9.70999 23.9891 10.1121 16.5613 10.1121 7.78497C10.1121 4.75262 9.48333 3.23645 8.22571 3.23645C7.52378 3.23645 6.90228 3.58633 6.36122 4.2861C5.83477 4.9713 5.418 5.86788 5.11091 6.97585C4.81844 8.08383 4.6722 9.27198 4.6722 10.5403C4.6722 11.5317 4.81844 13.0551 5.11091 15.1107C5.25714 16.1458 5.33026 16.78 5.33026 17.0132C5.33026 17.5964 5.18403 18.0629 4.89156 18.4128C4.61371 18.7626 4.06533 18.9376 3.24641 18.9376C2.73459 18.9376 2.23008 18.7991 1.73288 18.5221C1.23568 18.2305 0.818915 17.7932 0.482575 17.21C0.160858 16.6269 0 15.8907 0 15.0014C0 10.7298 0.789668 7.2164 2.369 4.46105C4.05071 1.48702 6.43433 0 9.51989 0C11.5964 0 13.0953 0.984055 14.0166 2.95216C14.7624 4.55581 15.1353 6.57494 15.1353 9.00957C15.1353 22.9321 14.9525 30.8556 14.5869 32.78C14.4407 33.5235 14.1044 34.1066 13.5779 34.5294C13.0515 34.9667 12.1521 35.1854 10.8799 35.1854Z" fill="url(#paint0_linear_80_95)"/>
<path d="M38.5729 34.5513C36.4817 34.5513 34.9828 33.6692 34.0762 31.9052C33.3304 30.462 32.9575 28.5522 32.9575 26.1759C32.9575 24.7617 33.0598 23.2674 33.2646 21.6929C33.44 20.3226 33.5278 19.1563 33.5278 18.1941C33.5278 17.5526 33.4327 17.0059 33.2426 16.554C33.0525 16.0875 32.7601 15.8542 32.3652 15.8542C31.5609 15.8542 30.7713 16.3062 29.9962 17.21C28.3145 19.1636 27.0423 22.2834 26.1795 26.5695C25.9016 27.969 25.7627 29.405 25.7627 30.8774V32.8237C25.7627 33.3777 25.6384 33.8005 25.3898 34.092C25.1412 34.3982 24.6806 34.5513 24.0079 34.5513C23.5107 34.5513 23.0866 34.3982 22.7357 34.092C21.7705 33.2465 21.1417 31.5845 20.8492 29.1061C20.4983 26.1613 20.3228 21.62 20.3228 15.4825C20.3228 13.3103 21.4488 12.2241 23.7008 12.2241C25.3094 12.2241 26.1137 12.8 26.1137 13.9517C26.1137 14.8264 26.0552 15.7959 25.9382 16.8601C25.8358 17.7786 25.7481 18.8647 25.675 20.1185C27.7223 14.8264 30.508 12.1804 34.0323 12.1804C37.1763 12.1804 38.7484 14.0975 38.7484 17.9317C38.7484 18.9522 38.6241 20.4173 38.3755 22.3271C38.1123 24.4264 37.9806 26.1175 37.9806 27.4005C37.9806 28.6105 38.1123 29.5654 38.3755 30.2651C38.6387 30.9649 39.1359 31.3148 39.8671 31.3148C42.0752 31.3148 44.2249 27.2547 46.316 19.1344C46.4476 18.6387 46.762 18.3909 47.2592 18.3909C47.5078 18.3909 47.7418 18.4784 47.9612 18.6533C48.1951 18.8137 48.3121 19.0469 48.3121 19.3531C48.3121 19.4405 48.2975 19.5426 48.2683 19.6592C47.1276 24.1057 45.9066 27.5973 44.6051 30.1339C43.9178 31.4752 43.0915 32.5467 42.1264 33.3485C41.1759 34.1503 39.9914 34.5513 38.5729 34.5513Z" fill="url(#paint1_linear_80_95)"/>
<path d="M51.7229 35.1854C49.6609 35.1854 48.162 34.1941 47.2261 32.2114C46.4803 30.6223 46.1074 28.6105 46.1074 26.1759C46.1074 21.5982 46.144 17.8369 46.2171 14.892C45.1788 14.892 44.5281 14.8483 44.2649 14.7608C43.6361 14.5713 43.3217 14.0975 43.3217 13.3394C43.3217 12.5667 43.6653 12.1804 44.3526 12.1804C44.6451 12.1804 45.2958 12.2169 46.3049 12.2897C46.3926 9.88428 46.5096 8.27335 46.6558 7.45695C46.8021 6.71344 47.1384 6.1303 47.6648 5.70752C48.2059 5.28474 49.1126 5.07335 50.3848 5.07335C50.9259 5.07335 51.4304 5.20456 51.8983 5.46697C52.3809 5.71481 52.6222 6.05011 52.6222 6.47289C52.6222 7.50797 52.5345 8.74715 52.359 10.1904L52.0958 12.421L55.8686 12.3772C56.3951 12.3772 56.6583 12.6396 56.6583 13.1645C56.6583 13.9517 55.5761 14.4401 53.4119 14.6296C52.9147 14.6733 52.3955 14.7098 51.8545 14.739C51.3719 19.4624 51.1306 23.6829 51.1306 27.4005C51.1306 30.4328 51.7594 31.949 53.017 31.949C55.1228 31.949 57.2798 27.6774 59.4879 19.1344C59.6195 18.6387 59.9266 18.3909 60.4092 18.3909C60.6724 18.3909 60.9137 18.4784 61.1331 18.6533C61.367 18.8137 61.484 19.0469 61.484 19.3531C61.484 19.703 60.9795 21.4597 59.9705 24.6232C58.8591 28.0929 57.755 30.6369 56.6583 32.2551C55.3275 34.2087 53.6824 35.1854 51.7229 35.1854Z" fill="url(#paint2_linear_80_95)"/>
<path d="M68.865 34.5513C66.5984 34.5513 64.7193 34.092 63.2277 33.1736C61.7507 32.2551 60.6393 30.9722 59.8935 29.3248C59.1624 27.6629 58.7968 25.7239 58.7968 23.508C58.7968 15.9563 62.1163 12.1804 68.7554 12.1804C70.7149 12.1804 72.3089 12.6834 73.5372 13.6893C74.7656 14.6806 75.3798 15.9927 75.3798 17.6255C75.3798 19.1125 75.0215 20.3736 74.305 21.4087C73.5884 22.4292 72.6525 23.2456 71.4973 23.8579C70.342 24.4556 69.1136 24.7544 67.8121 24.7544C66.2913 24.7544 65.0629 24.5576 64.127 24.164C64.2148 28.8583 65.9696 31.2055 69.3915 31.2055C71.8921 31.2055 74.0198 30.2068 75.7746 28.2096C77.2808 26.4893 78.4069 24.3098 79.1527 21.6711L79.8765 19.1344C80.0227 18.6387 80.3372 18.3909 80.8197 18.3909C81.083 18.3909 81.3242 18.4784 81.5436 18.6533C81.7629 18.8137 81.8726 19.0469 81.8726 19.3531C81.8726 19.5426 81.624 20.5048 81.1268 22.2396C80.1324 25.7385 78.7066 28.5667 76.8495 30.7244C74.6852 33.2756 72.0237 34.5513 68.865 34.5513ZM64.1709 22.2834C66.1451 22.2834 67.7756 21.9918 69.0624 21.4087C70.6125 20.7089 71.3876 19.6009 71.3876 18.0847C71.3876 17.2538 71.1609 16.5321 70.7076 15.9198C70.2543 15.3075 69.5889 15.0014 68.7115 15.0014C67.1175 15.0014 65.955 15.8688 65.2238 17.6036C64.5803 19.1052 64.2294 20.6651 64.1709 22.2834Z" fill="url(#paint3_linear_80_95)"/>
<path d="M87.9594 34.5513C86.6141 34.5513 85.5319 34.2888 84.713 33.764C83.8941 33.2538 83.2945 32.5394 82.9143 31.621C82.5487 30.7025 82.366 29.6456 82.366 28.4501C82.366 26.0009 82.9948 23.333 84.2524 20.4465C84.6618 19.4989 84.8666 18.9376 84.8666 18.7626C84.8666 18.5585 84.6107 18.2888 84.0988 17.9535C83.1776 17.3267 82.6219 16.9622 82.4318 16.8601C82.1539 17.7932 81.8907 18.7262 81.6421 19.6592C81.5105 20.1549 81.1815 20.4027 80.655 20.4027C79.997 20.3882 79.6679 20.1257 79.6679 19.6155C79.6679 19.1781 79.9896 17.8806 80.6331 15.723C79.6825 14.8629 79.2073 13.7549 79.2073 12.3991C79.2073 11.6702 79.4778 11.0579 80.0189 10.5622C80.56 10.0519 81.2473 9.79681 82.0808 9.79681C82.578 9.79681 82.9875 9.95718 83.3092 10.2779C83.6455 10.5986 83.8137 11.0651 83.8137 11.6774C83.8137 12.3189 83.6674 13.0624 83.375 13.908C83.6382 14.0683 84.7203 14.7462 86.6214 15.9417C88.5224 17.1371 89.473 18.1722 89.473 19.0469C89.473 19.8779 89.1659 21.0661 88.5517 22.6114C87.762 24.6087 87.3672 26.6278 87.3672 28.6688C87.3672 29.4706 87.4988 30.1121 87.762 30.5932C88.0252 31.0743 88.5224 31.3148 89.2536 31.3148C90.6867 31.3148 92.0321 29.7841 93.2897 26.7226C94.1232 24.6815 94.9275 22.1522 95.7026 19.1344C95.8342 18.6387 96.1486 18.3909 96.6458 18.3909C96.909 18.3909 97.143 18.4711 97.3477 18.6314C97.5671 18.7918 97.6767 19.0105 97.6767 19.2875C97.6767 19.3312 97.6548 19.4478 97.6109 19.6374C95.783 26.9267 93.765 31.497 91.5568 33.3485C90.5917 34.1503 89.3925 34.5513 87.9594 34.5513Z" fill="url(#paint4_linear_80_95)"/>
<path d="M113.766 34.5513C111.675 34.5513 110.176 33.6692 109.269 31.9052C108.524 30.462 108.151 28.5522 108.151 26.1759C108.151 24.7617 108.253 23.2674 108.458 21.6929C108.633 20.3226 108.721 19.1563 108.721 18.1941C108.721 17.5526 108.626 17.0059 108.436 16.554C108.246 16.0875 107.953 15.8542 107.558 15.8542C106.754 15.8542 105.964 16.3062 105.189 17.21C103.508 19.1636 102.235 22.2834 101.373 26.5695C101.095 27.969 100.956 29.405 100.956 30.8774V32.8237C100.956 33.3777 100.832 33.8005 100.583 34.092C100.334 34.3982 99.8737 34.5513 99.201 34.5513C98.7038 34.5513 98.2798 34.3982 97.9288 34.092C96.9637 33.2465 96.3348 31.5845 96.0424 29.1061C95.6914 26.1613 95.5159 21.62 95.5159 15.4825C95.5159 13.3103 96.6419 12.2241 98.894 12.2241C100.503 12.2241 101.307 12.8 101.307 13.9517C101.307 14.8264 101.248 15.7959 101.131 16.8601C101.029 17.7786 100.941 18.8647 100.868 20.1185C102.915 14.8264 105.701 12.1804 109.225 12.1804C112.369 12.1804 113.942 14.0975 113.942 17.9317C113.942 18.9522 113.817 20.4173 113.569 22.3271C113.305 24.4264 113.174 26.1175 113.174 27.4005C113.174 28.6105 113.305 29.5654 113.569 30.2651C113.832 30.9649 114.329 31.3148 115.06 31.3148C117.268 31.3148 119.418 27.2547 121.509 19.1344C121.641 18.6387 121.955 18.3909 122.452 18.3909C122.701 18.3909 122.935 18.4784 123.154 18.6533C123.388 18.8137 123.505 19.0469 123.505 19.3531C123.505 19.4405 123.491 19.5426 123.461 19.6592C122.321 24.1057 121.1 27.5973 119.798 30.1339C119.111 31.4752 118.285 32.5467 117.32 33.3485C116.369 34.1503 115.185 34.5513 113.766 34.5513Z" fill="url(#paint5_linear_80_95)"/>
<path d="M134.001 48C132.919 48 131.925 47.8323 131.018 47.497C130.111 47.1617 129.38 46.6223 128.824 45.8788C128.283 45.1353 128.013 44.1513 128.013 42.9267C128.013 40.7399 128.993 38.903 130.952 37.4159C132.283 36.41 134.345 35.3239 137.138 34.1576C137.664 33.939 138.169 33.7203 138.651 33.5016C138.739 31.9708 138.783 30.2724 138.783 28.4064V27.7066C138.037 29.0187 137.131 30.0319 136.063 30.7462C134.849 31.5772 133.35 31.9927 131.566 31.9927C126.667 31.9927 124.218 27.6118 124.218 18.8501C124.218 17.5818 124.364 16.1239 124.657 14.4765C124.949 12.8146 125.41 11.1453 126.039 9.46879C126.667 7.77768 127.472 6.21777 128.451 4.78907C129.446 3.36036 130.63 2.20866 132.005 1.33394C133.394 0.444647 135.003 0 136.831 0C139.068 0 140.911 0.626879 142.358 1.88064C144.157 3.44055 145.056 5.97722 145.056 9.49066C145.056 12.3626 143.974 13.7986 141.81 13.7986C140.991 13.7986 140.443 13.6237 140.165 13.2738C139.887 12.9239 139.748 12.4574 139.748 11.8743C139.748 11.087 139.829 10.2487 139.989 9.35945C140.209 8.09112 140.318 7.0779 140.318 6.31982C140.318 5.75125 140.223 5.22642 140.033 4.74533C139.843 4.26424 139.521 3.88519 139.068 3.6082C138.629 3.31663 138.037 3.17084 137.291 3.17084C135.478 3.17084 133.972 4.24237 132.773 6.38542C131.764 8.16401 131.011 10.4018 130.513 13.0989C130.104 15.2856 129.899 17.2027 129.899 18.8501C129.899 20.8036 129.987 22.4948 130.162 23.9235C130.353 25.3376 130.711 26.431 131.237 27.2036C131.764 27.9617 132.561 28.3408 133.628 28.3408C135.12 28.3408 136.37 27.4952 137.379 25.8041C138.242 24.3754 138.754 22.8301 138.915 21.1681C138.973 20.5412 139.046 19.9945 139.134 19.528C139.412 18.0118 140.633 17.2538 142.797 17.2538C143.338 17.2538 143.85 17.3923 144.333 17.6692C144.815 17.9317 145.056 18.2815 145.056 18.7189C145.056 20.6141 144.713 24.4774 144.025 30.3089C144.771 29.7112 145.495 29.0405 146.197 28.297C147.864 26.5476 149.151 24.1203 150.058 21.015L150.606 19.1344C150.752 18.6387 151.067 18.3909 151.549 18.3909C151.812 18.3909 152.054 18.4784 152.273 18.6533C152.492 18.8137 152.602 19.0469 152.602 19.3531C152.602 19.5426 152.354 20.4756 151.856 22.1522C150.877 25.4032 149.458 27.9909 147.601 29.9153C146.343 31.2273 145.027 32.3572 143.653 33.3048L143.258 36.2569C142.79 39.5226 141.956 42.154 140.757 44.1513C139.222 46.7171 136.97 48 134.001 48ZM133.606 44.851C134.513 44.851 135.266 44.523 135.866 43.867C137.196 42.38 138.059 39.7777 138.454 36.0601C136.421 37.0077 134.857 37.8679 133.76 38.6405C131.976 39.8943 131.084 41.2428 131.084 42.6861C131.084 44.1294 131.925 44.851 133.606 44.851Z" fill="url(#paint6_linear_80_95)"/>
<path d="M158.667 34.5513C157.322 34.5513 156.24 34.2888 155.421 33.764C154.602 33.2538 154.002 32.5394 153.622 31.621C153.256 30.7025 153.074 29.6456 153.074 28.4501C153.074 26.0009 153.702 23.333 154.96 20.4465C155.369 19.4989 155.574 18.9376 155.574 18.7626C155.574 18.5585 155.318 18.2888 154.806 17.9535C153.885 17.3267 153.329 16.9622 153.139 16.8601C152.862 17.7932 152.598 18.7262 152.35 19.6592C152.218 20.1549 151.889 20.4027 151.363 20.4027C150.705 20.3882 150.376 20.1257 150.376 19.6155C150.376 19.1781 150.697 17.8806 151.341 15.723C150.39 14.8629 149.915 13.7549 149.915 12.3991C149.915 11.6702 150.185 11.0579 150.726 10.5622C151.268 10.0519 151.955 9.79681 152.788 9.79681C153.286 9.79681 153.695 9.95718 154.017 10.2779C154.353 10.5986 154.521 11.0651 154.521 11.6774C154.521 12.3189 154.375 13.0624 154.083 13.908C154.346 14.0683 155.428 14.7462 157.329 15.9417C159.23 17.1371 160.181 18.1722 160.181 19.0469C160.181 19.8779 159.873 21.0661 159.259 22.6114C158.47 24.6087 158.075 26.6278 158.075 28.6688C158.075 29.4706 158.206 30.1121 158.47 30.5932C158.733 31.0743 159.23 31.3148 159.961 31.3148C161.394 31.3148 162.74 29.7841 163.997 26.7226C164.831 24.6815 165.635 22.1522 166.41 19.1344C166.542 18.6387 166.856 18.3909 167.353 18.3909C167.617 18.3909 167.851 18.4711 168.055 18.6314C168.275 18.7918 168.384 19.0105 168.384 19.2875C168.384 19.3312 168.362 19.4478 168.319 19.6374C166.491 26.9267 164.473 31.497 162.264 33.3485C161.299 34.1503 160.1 34.5513 158.667 34.5513Z" fill="url(#paint7_linear_80_95)"/>
<path d="M184.671 34.5513C181.381 34.5513 179.538 32.3572 179.143 27.969C177.871 32.3572 175.721 34.5513 172.694 34.5513C170.208 34.5513 168.366 33.3194 167.167 30.8556C166.202 28.8437 165.719 26.431 165.719 23.6173C165.719 20.5704 166.224 18.0337 167.233 16.0073C168.49 13.456 170.552 12.1804 173.418 12.1804C175.904 12.1804 177.93 13.3248 179.494 15.6137C179.524 15.2492 179.567 14.9066 179.626 14.5859C179.758 13.8424 180.087 13.2592 180.613 12.8364C181.154 12.3991 182.061 12.1804 183.333 12.1804C183.874 12.1804 184.379 12.3116 184.847 12.574C185.329 12.8219 185.57 13.1645 185.57 13.6018C185.57 14.3745 185.38 15.9198 185 18.2378C184.386 21.9554 184.079 25.0096 184.079 27.4005C184.079 28.6105 184.21 29.5654 184.474 30.2651C184.751 30.9649 185.249 31.3148 185.965 31.3148C188.173 31.3148 190.33 27.2547 192.436 19.1344C192.568 18.6387 192.875 18.3909 193.357 18.3909C193.621 18.3909 193.855 18.4784 194.059 18.6533C194.279 18.8137 194.388 19.0469 194.388 19.3531C194.388 19.5572 194.344 19.8342 194.257 20.1841C194.169 20.5194 194.081 20.8401 193.994 21.1462C192.97 24.8784 191.88 27.8743 190.725 30.1339C190.038 31.4752 189.212 32.5467 188.246 33.3485C187.296 34.1503 186.104 34.5513 184.671 34.5513ZM173.901 30.8774C174.544 30.8774 175.158 30.5203 175.743 29.8059C176.811 28.4938 177.769 26.3727 178.617 23.4424C178.968 22.2032 179.143 21.0879 179.143 20.0966C179.143 19.6738 179.114 19.2364 179.056 18.7845C178.953 18.0556 178.588 17.3995 177.959 16.8164C177.242 16.1749 176.445 15.8542 175.568 15.8542C173.623 15.8542 172.321 16.9549 171.663 19.1563C171.254 20.5558 171.049 22.4729 171.049 24.9075C171.049 26.1467 171.232 27.3494 171.598 28.5157C172.095 30.0902 172.863 30.8774 173.901 30.8774Z" fill="url(#paint8_linear_80_95)"/>
<path d="M220.261 34.5513C218.17 34.5513 216.671 33.6692 215.764 31.9052C215.018 30.462 214.645 28.5522 214.645 26.1759C214.645 24.7617 214.748 23.2674 214.952 21.6929C215.128 20.3226 215.216 19.1563 215.216 18.1941C215.216 17.5526 215.121 17.0059 214.93 16.554C214.74 16.0875 214.448 15.8542 214.053 15.8542C212.532 15.8542 211.223 17.4797 210.127 20.7308C209.074 23.836 208.547 27.2474 208.547 30.9649V32.9768C208.547 34.0264 208.043 34.5513 207.034 34.5513C206.113 34.5513 205.389 33.9754 204.862 32.8237C204.102 31.1617 203.722 29.077 203.722 26.5695C203.722 25.4032 203.802 24.0401 203.963 22.4802C204.094 21.0952 204.16 19.6665 204.16 18.1941C204.16 17.5526 204.065 17.0059 203.875 16.554C203.685 16.0875 203.393 15.8542 202.998 15.8542C201.477 15.8542 200.205 17.487 199.181 20.7526C198.187 23.9016 197.689 27.2547 197.689 30.8118V32.8893C197.689 33.9973 197.097 34.5513 195.913 34.5513C195.43 34.5513 195.013 34.3982 194.662 34.092C193.712 33.261 193.083 31.5991 192.776 29.1061C192.41 26.1613 192.228 21.6784 192.228 15.6574C192.228 14.8264 192.366 14.1412 192.644 13.6018C193.127 12.6688 194.129 12.2023 195.649 12.2023C197.229 12.2169 198.018 12.8 198.018 13.9517C198.018 14.8264 197.96 15.7959 197.843 16.8601C197.77 17.5308 197.711 18.2232 197.667 18.9376C198.209 17.3631 198.845 16.0437 199.576 14.9795C200.863 13.1134 202.559 12.1804 204.665 12.1804C207.575 12.1804 209.147 13.8497 209.381 17.1882C209.761 16.3572 210.171 15.621 210.609 14.9795C211.911 13.1134 213.614 12.1804 215.72 12.1804C218.879 12.1804 220.458 14.0975 220.458 17.9317C220.458 18.9522 220.334 20.4173 220.085 22.3271C219.807 24.4264 219.669 26.1175 219.669 27.4005C219.669 28.6105 219.8 29.5654 220.063 30.2651C220.327 30.9649 220.824 31.3148 221.555 31.3148C223.763 31.3148 225.913 27.2547 228.004 19.1344C228.136 18.6387 228.45 18.3909 228.947 18.3909C229.196 18.3909 229.43 18.4784 229.649 18.6533C229.883 18.8137 230 19.0469 230 19.3531C230 19.4405 229.985 19.5426 229.956 19.6592C228.099 26.9194 226.059 31.4825 223.836 33.3485C222.871 34.1503 221.679 34.5513 220.261 34.5513Z" fill="url(#paint9_linear_80_95)"/>
</svg>
