<svg width="17" height="16" viewBox="0 0 17 16" fill="none" xmlns="http://www.w3.org/2000/svg">
<path fill-rule="evenodd" clip-rule="evenodd" d="M16.18 8.18182C16.18 7.61455 16.1291 7.06909 16.0345 6.54546H8.5V9.64H12.8055C12.62 10.64 12.0564 11.4873 11.2091 12.0545V14.0618H13.7945C15.3073 12.6691 16.18 10.6182 16.18 8.18182Z" fill="#4285F4"/>
<path fill-rule="evenodd" clip-rule="evenodd" d="M8.49992 15.9999C10.6599 15.9999 12.4708 15.2835 13.7945 14.0617L11.209 12.0544C10.4926 12.5344 9.57629 12.8181 8.49992 12.8181C6.41629 12.8181 4.65265 11.4108 4.02356 9.51989H1.35083V11.5926C2.66719 14.2072 5.37265 15.9999 8.49992 15.9999Z" fill="#34A853"/>
<path fill-rule="evenodd" clip-rule="evenodd" d="M4.02364 9.52005C3.86364 9.04005 3.77273 8.52732 3.77273 8.00005C3.77273 7.47277 3.86364 6.96005 4.02364 6.48005V4.40732H1.35091C0.809091 5.48732 0.5 6.70914 0.5 8.00005C0.5 9.29095 0.809091 10.5128 1.35091 11.5928L4.02364 9.52005Z" fill="#FBBC05"/>
<path fill-rule="evenodd" clip-rule="evenodd" d="M8.49992 3.18182C9.67447 3.18182 10.729 3.58545 11.5581 4.37818L13.8526 2.08364C12.4672 0.792727 10.6563 0 8.49992 0C5.37265 0 2.66719 1.79273 1.35083 4.40727L4.02356 6.48C4.65265 4.58909 6.41629 3.18182 8.49992 3.18182Z" fill="#EA4335"/>
</svg>
