<svg width="28" height="28" viewBox="0 0 28 28" fill="none" xmlns="http://www.w3.org/2000/svg">
<path d="M7.80371 23.085C9.02539 23.085 11.4951 21.8984 13.3496 20.5801C19.5459 20.6943 24.1777 17.1084 24.1777 12.415C24.1777 7.87988 19.6514 4.23242 14 4.23242C8.34863 4.23242 3.82227 7.87988 3.82227 12.415C3.82227 15.2979 5.62402 17.8818 8.375 19.2178C7.99707 19.9385 7.32031 20.9229 6.94238 21.4238C6.38867 22.1621 6.7666 23.085 7.80371 23.085ZM8.84961 21.3008C8.75293 21.3447 8.70898 21.2832 8.7793 21.1953C9.22754 20.6328 9.89551 19.7627 10.2207 19.1562C10.4844 18.6729 10.3877 18.251 9.8252 17.9873C7.14453 16.7217 5.58887 14.7178 5.58887 12.415C5.58887 8.87305 9.31543 5.99023 14 5.99023C18.6846 5.99023 22.4111 8.87305 22.4111 12.415C22.4111 15.957 18.6846 18.8398 14 18.8398C13.833 18.8398 13.5957 18.8311 13.2793 18.8223C12.9014 18.8223 12.6201 18.9365 12.2686 19.209C11.2139 19.9912 9.64062 20.9844 8.84961 21.3008Z" fill="#1B1B1F"/>
</svg>
