<svg width="24" height="24" viewBox="0 0 24 24" fill="none" xmlns="http://www.w3.org/2000/svg">
<circle cx="12" cy="12.0001" r="9.42857" fill="white"/>
<path d="M12 21.4287C17.1569 21.4287 21.4286 17.1662 21.4286 12.0001C21.4286 6.84314 17.1569 2.57153 11.9909 2.57153C6.83389 2.57153 2.57141 6.84314 2.57141 12.0001C2.57141 17.1662 6.84302 21.4287 12 21.4287ZM5.61082 12.8946V12.8033C5.61082 10.3298 8.81453 9.0976 12 9.0976C15.1854 9.0976 18.3891 10.3298 18.3891 12.8033V12.8946C18.3891 13.6248 18.0149 14.1724 17.2939 14.1724C16.7645 14.1724 16.1438 14.1542 15.0942 13.8256C14.4735 13.6339 14.1997 13.3327 14.1906 12.6573L14.1723 12.1096C14.1723 12.0092 14.1267 11.9453 13.9897 11.8906C13.7068 11.7993 12.9857 11.6715 12 11.6715C11.0142 11.6715 10.2932 11.7993 10.0102 11.8906C9.87331 11.9453 9.82767 12.0092 9.82767 12.1096L9.81854 12.6573C9.80941 13.3327 9.53559 13.6339 8.90581 13.8256C7.85616 14.1542 7.2355 14.1724 6.71524 14.1724C5.98505 14.1724 5.61082 13.6248 5.61082 12.8946Z" fill="#E2353B"/>
</svg>
