<svg width="24" height="24" viewBox="0 0 24 24" fill="none" xmlns="http://www.w3.org/2000/svg">
<path d="M15.4277 19.2473C16.746 19.2473 17.6425 18.8707 18.4486 17.9892C18.5013 17.929 18.5541 17.8687 18.6143 17.8009C19.0513 17.3037 19.2773 16.7839 19.2773 16.3093C19.2773 15.7443 18.9684 15.232 18.2979 14.7649L16.0529 13.2055C15.3448 12.7158 14.5312 12.6781 13.8984 13.3109L13.3409 13.8684C13.145 14.0643 12.9642 14.0794 12.7457 13.9287C12.3389 13.65 11.563 12.9719 11.0356 12.4446C10.4932 11.9097 9.94329 11.292 9.64948 10.8324C9.49881 10.614 9.51388 10.4332 9.70975 10.2373L10.2672 9.67981C10.9 9.04699 10.8624 8.22584 10.3727 7.52523L8.78313 5.25012C8.33112 4.60224 7.79625 4.29337 7.23124 4.28583C6.74909 4.2783 6.24435 4.49677 5.74714 4.93371C5.67934 4.98645 5.61907 5.03918 5.56634 5.09192C4.66985 5.91307 4.28564 6.78695 4.28564 8.15804C4.28564 10.3729 5.57387 12.9945 8.08252 15.4806C10.5686 17.9591 13.1676 19.2473 15.4277 19.2473ZM13.4916 10.7194C13.6648 10.7194 13.8155 10.6592 13.9436 10.5311L16.9946 7.4725L18.0418 6.33494L17.9212 8.31625V9.40107C17.9212 9.74007 18.1774 10.0037 18.5239 10.0113C18.878 10.0263 19.1718 9.75514 19.1718 9.40107V5.15218C19.1718 4.66251 18.9157 4.39884 18.426 4.39884H14.147C13.7929 4.39884 13.5217 4.69264 13.5368 5.04671C13.5443 5.39325 13.808 5.64939 14.147 5.64939H15.2619L17.2583 5.52886L16.0981 6.56848L13.0471 9.62707C12.9039 9.77021 12.8361 9.92841 12.8361 10.1167C12.8361 10.4558 13.1149 10.7194 13.4916 10.7194ZM15.4277 17.9968C13.5066 18.0269 11.111 16.6483 9.03174 14.5841C6.93743 12.5199 5.52114 10.0339 5.55127 8.11284C5.56634 7.29923 5.85261 6.59861 6.42515 6.09387C6.47789 6.04867 6.53062 6.011 6.58336 5.9658C6.79429 5.785 7.02783 5.68706 7.23124 5.68706C7.44971 5.68706 7.64558 5.77746 7.79625 6.00347L9.21254 8.12791C9.38581 8.38405 9.39335 8.67032 9.13721 8.92646L8.527 9.52914C7.96198 10.0791 8.00718 10.7345 8.37633 11.2468C8.78313 11.8193 9.54401 12.6781 10.1768 13.3034C10.8548 13.9664 11.7815 14.8026 12.3314 15.2018C12.8437 15.571 13.4991 15.6162 14.049 15.0512L14.6517 14.441C14.9079 14.1773 15.1941 14.1924 15.4503 14.3656L17.5446 15.7518C17.7706 15.9025 17.861 16.0908 17.861 16.3168C17.861 16.5202 17.763 16.7537 17.5747 16.9647C17.537 17.0174 17.4918 17.0702 17.4466 17.1229C16.9494 17.6954 16.2413 17.9817 15.4277 17.9968Z" fill="white"/>
</svg>
