<svg width="22" height="22" viewBox="0 0 22 22" fill="none" xmlns="http://www.w3.org/2000/svg">
<path d="M17.824 1.83334H4.17607C2.88428 1.83334 1.83337 2.88428 1.83337 4.17606V17.824C1.83337 19.1157 2.88428 20.1667 4.17607 20.1667H17.824C19.1158 20.1667 20.1667 19.1157 20.1667 17.8239V4.17606C20.1667 2.88428 19.1158 1.83334 17.824 1.83334ZM19.0868 17.824C19.0868 18.5203 18.5203 19.0868 17.824 19.0868H4.17607C3.47972 19.0868 2.91321 18.5203 2.91321 17.824V15.8543L6.46727 12.8304C6.59696 12.72 6.78617 12.719 6.91708 12.8277L9.14336 14.6763C9.35803 14.8545 9.67313 14.8399 9.87039 14.6425L15.1602 9.34463C15.2558 9.24885 15.3672 9.23954 15.4254 9.24251C15.4834 9.24548 15.5935 9.26618 15.6789 9.37127L19.0869 13.5675V17.824H19.0868ZM19.0868 11.8545L16.5171 8.6904C16.2622 8.37658 15.8845 8.18473 15.4807 8.16399C15.0773 8.14358 14.6816 8.29548 14.396 8.58158L9.45431 13.5309L7.60701 11.9969C7.07137 11.5522 6.29779 11.5568 5.76749 12.008L2.91321 14.4365V4.17606C2.91321 3.47972 3.47972 2.91321 4.17607 2.91321H17.824C18.5204 2.91321 19.0868 3.47972 19.0868 4.17606V11.8545Z" fill="#1B1B1F"/>
<path d="M17.824 1.83334H4.17607C2.88428 1.83334 1.83337 2.88428 1.83337 4.17606V17.824C1.83337 19.1157 2.88428 20.1667 4.17607 20.1667H17.824C19.1158 20.1667 20.1667 19.1157 20.1667 17.8239V4.17606C20.1667 2.88428 19.1158 1.83334 17.824 1.83334ZM19.0868 17.824C19.0868 18.5203 18.5203 19.0868 17.824 19.0868H4.17607C3.47972 19.0868 2.91321 18.5203 2.91321 17.824V15.8543L6.46727 12.8304C6.59696 12.72 6.78617 12.719 6.91708 12.8277L9.14336 14.6763C9.35803 14.8545 9.67313 14.8399 9.87039 14.6425L15.1602 9.34463C15.2558 9.24885 15.3672 9.23954 15.4254 9.24251C15.4834 9.24548 15.5935 9.26618 15.6789 9.37127L19.0869 13.5675V17.824H19.0868ZM19.0868 11.8545L16.5171 8.6904C16.2622 8.37658 15.8845 8.18473 15.4807 8.16399C15.0773 8.14358 14.6816 8.29548 14.396 8.58158L9.45431 13.5309L7.60701 11.9969C7.07137 11.5522 6.29779 11.5568 5.76749 12.008L2.91321 14.4365V4.17606C2.91321 3.47972 3.47972 2.91321 4.17607 2.91321H17.824C18.5204 2.91321 19.0868 3.47972 19.0868 4.17606V11.8545Z" fill="black" fill-opacity="0.2"/>
<path d="M17.824 1.83334H4.17607C2.88428 1.83334 1.83337 2.88428 1.83337 4.17606V17.824C1.83337 19.1157 2.88428 20.1667 4.17607 20.1667H17.824C19.1158 20.1667 20.1667 19.1157 20.1667 17.8239V4.17606C20.1667 2.88428 19.1158 1.83334 17.824 1.83334ZM19.0868 17.824C19.0868 18.5203 18.5203 19.0868 17.824 19.0868H4.17607C3.47972 19.0868 2.91321 18.5203 2.91321 17.824V15.8543L6.46727 12.8304C6.59696 12.72 6.78617 12.719 6.91708 12.8277L9.14336 14.6763C9.35803 14.8545 9.67313 14.8399 9.87039 14.6425L15.1602 9.34463C15.2558 9.24885 15.3672 9.23954 15.4254 9.24251C15.4834 9.24548 15.5935 9.26618 15.6789 9.37127L19.0869 13.5675V17.824H19.0868ZM19.0868 11.8545L16.5171 8.6904C16.2622 8.37658 15.8845 8.18473 15.4807 8.16399C15.0773 8.14358 14.6816 8.29548 14.396 8.58158L9.45431 13.5309L7.60701 11.9969C7.07137 11.5522 6.29779 11.5568 5.76749 12.008L2.91321 14.4365V4.17606C2.91321 3.47972 3.47972 2.91321 4.17607 2.91321H17.824C18.5204 2.91321 19.0868 3.47972 19.0868 4.17606V11.8545Z" fill="black" fill-opacity="0.2"/>
<path d="M17.824 1.83334H4.17607C2.88428 1.83334 1.83337 2.88428 1.83337 4.17606V17.824C1.83337 19.1157 2.88428 20.1667 4.17607 20.1667H17.824C19.1158 20.1667 20.1667 19.1157 20.1667 17.8239V4.17606C20.1667 2.88428 19.1158 1.83334 17.824 1.83334ZM19.0868 17.824C19.0868 18.5203 18.5203 19.0868 17.824 19.0868H4.17607C3.47972 19.0868 2.91321 18.5203 2.91321 17.824V15.8543L6.46727 12.8304C6.59696 12.72 6.78617 12.719 6.91708 12.8277L9.14336 14.6763C9.35803 14.8545 9.67313 14.8399 9.87039 14.6425L15.1602 9.34463C15.2558 9.24885 15.3672 9.23954 15.4254 9.24251C15.4834 9.24548 15.5935 9.26618 15.6789 9.37127L19.0869 13.5675V17.824H19.0868ZM19.0868 11.8545L16.5171 8.6904C16.2622 8.37658 15.8845 8.18473 15.4807 8.16399C15.0773 8.14358 14.6816 8.29548 14.396 8.58158L9.45431 13.5309L7.60701 11.9969C7.07137 11.5522 6.29779 11.5568 5.76749 12.008L2.91321 14.4365V4.17606C2.91321 3.47972 3.47972 2.91321 4.17607 2.91321H17.824C18.5204 2.91321 19.0868 3.47972 19.0868 4.17606V11.8545Z" fill="black" fill-opacity="0.2"/>
<path d="M7.60463 4.08901C6.16894 4.08901 5.00098 5.25705 5.00098 6.69267C5.00098 8.12832 6.16897 9.29632 7.60463 9.29632C9.04029 9.29632 10.2083 8.12832 10.2083 6.69267C10.2083 5.25701 9.04033 4.08901 7.60463 4.08901ZM7.60463 8.21648C6.76438 8.21648 6.08082 7.53289 6.08082 6.69267C6.08082 5.85241 6.76438 5.16885 7.60463 5.16885C8.44489 5.16885 9.12845 5.85245 9.12845 6.69267C9.12845 7.53289 8.44489 8.21648 7.60463 8.21648Z" fill="#1B1B1F"/>
<path d="M7.60463 4.08901C6.16894 4.08901 5.00098 5.25705 5.00098 6.69267C5.00098 8.12832 6.16897 9.29632 7.60463 9.29632C9.04029 9.29632 10.2083 8.12832 10.2083 6.69267C10.2083 5.25701 9.04033 4.08901 7.60463 4.08901ZM7.60463 8.21648C6.76438 8.21648 6.08082 7.53289 6.08082 6.69267C6.08082 5.85241 6.76438 5.16885 7.60463 5.16885C8.44489 5.16885 9.12845 5.85245 9.12845 6.69267C9.12845 7.53289 8.44489 8.21648 7.60463 8.21648Z" fill="black" fill-opacity="0.2"/>
<path d="M7.60463 4.08901C6.16894 4.08901 5.00098 5.25705 5.00098 6.69267C5.00098 8.12832 6.16897 9.29632 7.60463 9.29632C9.04029 9.29632 10.2083 8.12832 10.2083 6.69267C10.2083 5.25701 9.04033 4.08901 7.60463 4.08901ZM7.60463 8.21648C6.76438 8.21648 6.08082 7.53289 6.08082 6.69267C6.08082 5.85241 6.76438 5.16885 7.60463 5.16885C8.44489 5.16885 9.12845 5.85245 9.12845 6.69267C9.12845 7.53289 8.44489 8.21648 7.60463 8.21648Z" fill="black" fill-opacity="0.2"/>
<path d="M7.60463 4.08901C6.16894 4.08901 5.00098 5.25705 5.00098 6.69267C5.00098 8.12832 6.16897 9.29632 7.60463 9.29632C9.04029 9.29632 10.2083 8.12832 10.2083 6.69267C10.2083 5.25701 9.04033 4.08901 7.60463 4.08901ZM7.60463 8.21648C6.76438 8.21648 6.08082 7.53289 6.08082 6.69267C6.08082 5.85241 6.76438 5.16885 7.60463 5.16885C8.44489 5.16885 9.12845 5.85245 9.12845 6.69267C9.12845 7.53289 8.44489 8.21648 7.60463 8.21648Z" fill="black" fill-opacity="0.2"/>
</svg>
