<svg width="24" height="24" viewBox="0 0 24 24" fill="none" xmlns="http://www.w3.org/2000/svg">
<path d="M12 20C7.58862 20 4 16.4114 4 12C4 7.58862 7.58862 4 12 4C16.4114 4 20 7.58862 20 12C20 16.4114 16.4114 20 12 20ZM12 5C8.14001 5 5 8.14001 5 12C5 15.86 8.14001 19 12 19C15.86 19 19 15.86 19 12C19 8.14001 15.86 5 12 5Z" fill="black"/>
<path d="M15.5 12.5H8.5C8.224 12.5 8 12.276 8 12C8 11.724 8.224 11.5 8.5 11.5H15.5C15.776 11.5 16 11.724 16 12C16 12.276 15.776 12.5 15.5 12.5Z" fill="black"/>
<path d="M12 16C11.724 16 11.5 15.776 11.5 15.5V8.5C11.5 8.224 11.724 8 12 8C12.276 8 12.5 8.224 12.5 8.5V15.5C12.5 15.776 12.276 16 12 16Z" fill="black"/>
</svg>
