<svg width="24" height="24" viewBox="0 0 24 24" fill="none" xmlns="http://www.w3.org/2000/svg">
<path d="M19.8262 18.9883L15.5246 14.6866C16.4677 13.5558 17.0369 12.1027 17.0369 10.5185C17.0369 6.92412 14.1128 4 10.5185 4C6.92412 4 4 6.92412 4 10.5185C4 14.1128 6.92412 17.0369 10.5185 17.0369C12.1027 17.0369 13.5558 16.4677 14.6866 15.5246L18.9883 19.8264C19.104 19.9421 19.2557 20 19.4073 20C19.5588 20 19.7105 19.9421 19.8262 19.8264C20.0578 19.5948 20.0578 19.2197 19.8262 18.9883V18.9883ZM5.18517 10.5185C5.18517 7.57774 7.57745 5.18517 10.5185 5.18517C13.4595 5.18517 15.8517 7.57774 15.8517 10.5185C15.8517 13.4592 13.4595 15.8517 10.5185 15.8517C7.57745 15.8517 5.18517 13.4592 5.18517 10.5185Z" fill="black"/>
</svg>
