<svg width="25" height="25" viewBox="0 0 25 25" fill="none" xmlns="http://www.w3.org/2000/svg">
<path fill-rule="evenodd" clip-rule="evenodd" d="M17.5 10C17.5 14.1421 14.1421 17.5 10 17.5C5.85786 17.5 2.5 14.1421 2.5 10C2.5 5.85786 5.85786 2.5 10 2.5C14.1421 2.5 17.5 5.85786 17.5 10ZM16.1321 17.8998C14.4387 19.2161 12.3109 20 10 20C4.47715 20 0 15.5228 0 10C0 4.47715 4.47715 0 10 0C15.5228 0 20 4.47715 20 10C20 12.3109 19.2161 14.4387 17.8998 16.1321L21.1339 19.3661L24.3839 22.6161C24.872 23.1043 24.872 23.8957 24.3839 24.3839C23.8957 24.872 23.1043 24.872 22.6161 24.3839L19.3661 21.1339L16.1321 17.8998Z" fill="#1B1B1F"/>
</svg>
