<svg width="24" height="24" viewBox="0 0 24 24" fill="none" xmlns="http://www.w3.org/2000/svg">
<path d="M6.14643 17.9941H13.9888C15.9098 17.9941 17.0323 16.9018 17.0323 15.0033V14.0918L19.7519 16.397C20.0984 16.6908 20.4676 16.8867 20.8217 16.8867C21.5072 16.8867 21.9743 16.3895 21.9743 15.6512V7.78625C21.9743 7.04797 21.5072 6.55076 20.8217 6.55076C20.4676 6.55076 20.0984 6.74663 19.7519 7.04044L17.0323 9.34569V8.39647C17.0323 6.50556 15.9098 5.41321 13.9888 5.41321H6.14643C4.2932 5.41321 3.10291 6.50556 3.10291 8.404V15.0561C3.10291 16.9394 4.22539 17.9941 6.14643 17.9941ZM6.39504 16.6532C5.21228 16.6532 4.5418 16.0279 4.5418 14.7924V8.61494C4.5418 7.36438 5.21228 6.74663 6.39504 6.74663H13.7402C14.9229 6.74663 15.5934 7.37945 15.5934 8.61494V14.7924C15.5934 16.0279 14.9154 16.6532 13.7402 16.6532H6.39504ZM20.3169 15.1766L17.0323 12.4871V10.9503L20.3169 8.26086C20.3847 8.20813 20.4299 8.178 20.4902 8.178C20.573 8.178 20.6182 8.2458 20.6182 8.34373V15.0937C20.6182 15.1992 20.573 15.2595 20.4902 15.2595C20.4299 15.2595 20.3847 15.2218 20.3169 15.1766Z" fill="#1B1B1F"/>
</svg>
