<svg width="24" height="24" viewBox="0 0 24 24" fill="none" xmlns="http://www.w3.org/2000/svg">
<path d="M18.4285 12.0002C18.034 12.0002 17.7142 12.32 17.7142 12.7145V19.8573C17.7142 20.2518 17.3945 20.5716 16.9999 20.5716H4.14286C3.74835 20.5716 3.42856 20.2518 3.42856 19.8573V5.57161C3.42856 5.17711 3.74835 4.85731 4.14286 4.85731H12.7143C13.1088 4.85731 13.4286 4.53752 13.4286 4.14301C13.4286 3.74851 13.1088 3.42876 12.7143 3.42876H4.14286C2.95939 3.42876 2 4.38814 2 5.57161V19.8573C2 21.0408 2.95939 22.0002 4.14286 22.0002H17C18.1835 22.0002 19.1428 21.0408 19.1428 19.8573V12.7144C19.1428 12.32 18.823 12.0002 18.4285 12.0002Z" fill="#1B1B1F"/>
<path d="M18.4285 12.0002C18.034 12.0002 17.7142 12.32 17.7142 12.7145V19.8573C17.7142 20.2518 17.3945 20.5716 16.9999 20.5716H4.14286C3.74835 20.5716 3.42856 20.2518 3.42856 19.8573V5.57161C3.42856 5.17711 3.74835 4.85731 4.14286 4.85731H12.7143C13.1088 4.85731 13.4286 4.53752 13.4286 4.14301C13.4286 3.74851 13.1088 3.42876 12.7143 3.42876H4.14286C2.95939 3.42876 2 4.38814 2 5.57161V19.8573C2 21.0408 2.95939 22.0002 4.14286 22.0002H17C18.1835 22.0002 19.1428 21.0408 19.1428 19.8573V12.7144C19.1428 12.32 18.823 12.0002 18.4285 12.0002Z" fill="black" fill-opacity="0.2"/>
<path d="M18.4285 12.0002C18.034 12.0002 17.7142 12.32 17.7142 12.7145V19.8573C17.7142 20.2518 17.3945 20.5716 16.9999 20.5716H4.14286C3.74835 20.5716 3.42856 20.2518 3.42856 19.8573V5.57161C3.42856 5.17711 3.74835 4.85731 4.14286 4.85731H12.7143C13.1088 4.85731 13.4286 4.53752 13.4286 4.14301C13.4286 3.74851 13.1088 3.42876 12.7143 3.42876H4.14286C2.95939 3.42876 2 4.38814 2 5.57161V19.8573C2 21.0408 2.95939 22.0002 4.14286 22.0002H17C18.1835 22.0002 19.1428 21.0408 19.1428 19.8573V12.7144C19.1428 12.32 18.823 12.0002 18.4285 12.0002Z" fill="black" fill-opacity="0.2"/>
<path d="M18.4285 12.0002C18.034 12.0002 17.7142 12.32 17.7142 12.7145V19.8573C17.7142 20.2518 17.3945 20.5716 16.9999 20.5716H4.14286C3.74835 20.5716 3.42856 20.2518 3.42856 19.8573V5.57161C3.42856 5.17711 3.74835 4.85731 4.14286 4.85731H12.7143C13.1088 4.85731 13.4286 4.53752 13.4286 4.14301C13.4286 3.74851 13.1088 3.42876 12.7143 3.42876H4.14286C2.95939 3.42876 2 4.38814 2 5.57161V19.8573C2 21.0408 2.95939 22.0002 4.14286 22.0002H17C18.1835 22.0002 19.1428 21.0408 19.1428 19.8573V12.7144C19.1428 12.32 18.823 12.0002 18.4285 12.0002Z" fill="black" fill-opacity="0.2"/>
<path d="M21.1995 2.80114C20.6866 2.28819 19.991 2.00008 19.2657 2.00016C18.5399 1.99807 17.8436 2.28669 17.3321 2.8016L7.92351 12.2094C7.84546 12.288 7.78657 12.3836 7.75137 12.4887L6.32281 16.7744C6.19814 17.1487 6.40049 17.5532 6.77478 17.6778C6.8474 17.702 6.92344 17.7143 6.99995 17.7144C7.07662 17.7143 7.15284 17.702 7.22566 17.678L11.5114 16.2494C11.6166 16.2143 11.7123 16.1551 11.7907 16.0766L21.1992 6.66803C22.2671 5.60029 22.2672 3.86901 21.1995 2.80114ZM20.1892 5.65871L10.9035 14.9444L8.12922 15.8708L9.05278 13.1001L18.3421 3.81443C18.8527 3.30475 19.68 3.30559 20.1896 3.81628C20.4331 4.06024 20.5703 4.39049 20.5713 4.73515C20.5722 5.08165 20.4347 5.41413 20.1892 5.65871Z" fill="#1B1B1F"/>
<path d="M21.1995 2.80114C20.6866 2.28819 19.991 2.00008 19.2657 2.00016C18.5399 1.99807 17.8436 2.28669 17.3321 2.8016L7.92351 12.2094C7.84546 12.288 7.78657 12.3836 7.75137 12.4887L6.32281 16.7744C6.19814 17.1487 6.40049 17.5532 6.77478 17.6778C6.8474 17.702 6.92344 17.7143 6.99995 17.7144C7.07662 17.7143 7.15284 17.702 7.22566 17.678L11.5114 16.2494C11.6166 16.2143 11.7123 16.1551 11.7907 16.0766L21.1992 6.66803C22.2671 5.60029 22.2672 3.86901 21.1995 2.80114ZM20.1892 5.65871L10.9035 14.9444L8.12922 15.8708L9.05278 13.1001L18.3421 3.81443C18.8527 3.30475 19.68 3.30559 20.1896 3.81628C20.4331 4.06024 20.5703 4.39049 20.5713 4.73515C20.5722 5.08165 20.4347 5.41413 20.1892 5.65871Z" fill="black" fill-opacity="0.2"/>
<path d="M21.1995 2.80114C20.6866 2.28819 19.991 2.00008 19.2657 2.00016C18.5399 1.99807 17.8436 2.28669 17.3321 2.8016L7.92351 12.2094C7.84546 12.288 7.78657 12.3836 7.75137 12.4887L6.32281 16.7744C6.19814 17.1487 6.40049 17.5532 6.77478 17.6778C6.8474 17.702 6.92344 17.7143 6.99995 17.7144C7.07662 17.7143 7.15284 17.702 7.22566 17.678L11.5114 16.2494C11.6166 16.2143 11.7123 16.1551 11.7907 16.0766L21.1992 6.66803C22.2671 5.60029 22.2672 3.86901 21.1995 2.80114ZM20.1892 5.65871L10.9035 14.9444L8.12922 15.8708L9.05278 13.1001L18.3421 3.81443C18.8527 3.30475 19.68 3.30559 20.1896 3.81628C20.4331 4.06024 20.5703 4.39049 20.5713 4.73515C20.5722 5.08165 20.4347 5.41413 20.1892 5.65871Z" fill="black" fill-opacity="0.2"/>
<path d="M21.1995 2.80114C20.6866 2.28819 19.991 2.00008 19.2657 2.00016C18.5399 1.99807 17.8436 2.28669 17.3321 2.8016L7.92351 12.2094C7.84546 12.288 7.78657 12.3836 7.75137 12.4887L6.32281 16.7744C6.19814 17.1487 6.40049 17.5532 6.77478 17.6778C6.8474 17.702 6.92344 17.7143 6.99995 17.7144C7.07662 17.7143 7.15284 17.702 7.22566 17.678L11.5114 16.2494C11.6166 16.2143 11.7123 16.1551 11.7907 16.0766L21.1992 6.66803C22.2671 5.60029 22.2672 3.86901 21.1995 2.80114ZM20.1892 5.65871L10.9035 14.9444L8.12922 15.8708L9.05278 13.1001L18.3421 3.81443C18.8527 3.30475 19.68 3.30559 20.1896 3.81628C20.4331 4.06024 20.5703 4.39049 20.5713 4.73515C20.5722 5.08165 20.4347 5.41413 20.1892 5.65871Z" fill="black" fill-opacity="0.2"/>
</svg>
